<svg xmlns="http://www.w3.org/2000/svg" viewBox="0 0 960 500" font-family="'Liberation Sans', 'DejaVu Sans', 'Noto Sans', Arial, Helvetica, sans-serif">
  <defs>
    <marker id="arr" markerWidth="8" markerHeight="6" refX="8" refY="3" orient="auto">
      <path d="M0,0 L8,3 L0,6 Z" fill="#4A5568"/>
    </marker>
    <marker id="arr-b" markerWidth="8" markerHeight="6" refX="8" refY="3" orient="auto">
      <path d="M0,0 L8,3 L0,6 Z" fill="#2B6CB0"/>
    </marker>
    <marker id="arr-g" markerWidth="8" markerHeight="6" refX="8" refY="3" orient="auto">
      <path d="M0,0 L8,3 L0,6 Z" fill="#2F855A"/>
    </marker>
    <marker id="arr-o" markerWidth="8" markerHeight="6" refX="8" refY="3" orient="auto">
      <path d="M0,0 L8,3 L0,6 Z" fill="#B7791F"/>
    </marker>
    <marker id="arr-r" markerWidth="8" markerHeight="6" refX="8" refY="3" orient="auto">
      <path d="M0,0 L8,3 L0,6 Z" fill="#C53030"/>
    </marker>
  </defs>

  <rect width="960" height="500" fill="#FAFBFC" rx="8"/>

  <!-- Title -->
  <text x="480" y="28" text-anchor="middle" font-size="14" font-weight="bold" fill="#1A202C">Figure 1-6: Exercise 2 Ph&#x1EA7;n E &#x2014; dup() write: d&#x1EEF; li&#x1EC7;u n&#x1ED1;i ti&#x1EBF;p</text>
  <text x="480" y="52" text-anchor="middle" font-size="10" fill="#718096">FD 3 ghi AAA (pos 0&#x2192;3), FD 4 ghi BBB (pos 3&#x2192;6) &#x2014; c&#xF9;ng OFD n&#xEA;n kh&#xF4;ng &#x111;&#xE8;</text>

  <!-- ===================== PROCESS BOX (center) ===================== -->
  <rect x="80" y="72" width="250" height="150" fill="#EBF8FF" stroke="#2B6CB0" stroke-width="1.5" rx="6"/>
  <text x="205" y="94" text-anchor="middle" font-size="11" font-weight="bold" fill="#2B6CB0">Process (bash)</text>

  <!-- Column headers -->
  <text x="98" y="116" font-size="9" font-weight="bold" fill="#718096">FD</text>
  <text x="180" y="116" font-size="9" font-weight="bold" fill="#718096">Tr&#x1ECF; &#x111;&#x1EBF;n</text>

  <!-- FD 3 → OFD "W" -->
  <rect x="92" y="126" width="196" height="28" fill="#EBF4FF" stroke="#3182CE" rx="3"/>
  <text x="104" y="146" font-size="10" font-weight="bold" fill="#2B6CB0">3</text>
  <text x="180" y="146" font-size="10" fill="#2B6CB0">&#x2192; OFD &#x201C;W&#x201D;</text>

  <!-- FD 4 → OFD "W" (dup) -->
  <rect x="92" y="158" width="196" height="28" fill="#EBF4FF" stroke="#3182CE" rx="3"/>
  <text x="104" y="178" font-size="10" font-weight="bold" fill="#2B6CB0">4</text>
  <text x="140" y="178" font-size="9" fill="#718096">(dup)</text>
  <text x="180" y="178" font-size="10" fill="#2B6CB0">&#x2192; OFD &#x201C;W&#x201D;</text>

  <!-- FD 5 → OFD "X" (not highlighted) -->
  <rect x="92" y="190" width="196" height="28" fill="#F0FFF4" stroke="#38A169" rx="3"/>
  <text x="104" y="210" font-size="10" font-weight="bold" fill="#2F855A">5</text>
  <text x="140" y="210" font-size="9" fill="#718096">(open)</text>
  <text x="180" y="210" font-size="10" fill="#2F855A">&#x2192; OFD &#x201C;X&#x201D;</text>

  <!-- ===================== OFD BOX ===================== -->
  <rect x="380" y="72" width="320" height="100" fill="#FFFBEB" stroke="#D69E2E" stroke-width="1.5" rx="6"/>
  <text x="540" y="93" text-anchor="middle" font-size="11" font-weight="bold" fill="#B7791F">Open File Descriptor (OFD W)</text>

  <!-- OFD content -->
  <rect x="394" y="107" width="292" height="52" fill="#EBF4FF" stroke="#3182CE" rx="4"/>
  <text x="406" y="127" font-size="10" font-weight="bold" fill="#2B6CB0">pos: 6  |  flags: 0100002 (O_RDWR)  |  f_count: 2</text>
  <text x="406" y="145" font-size="9" fill="#718096">(FD 3,4 chia s&#x1EBB; c&#xF9;ng OFD)</text>

  <!-- ===================== I-NODE BOX ===================== -->
  <rect x="740" y="72" width="160" height="100" fill="#FAF5FF" stroke="#805AD5" stroke-width="1.5" rx="6"/>
  <text x="820" y="96" text-anchor="middle" font-size="10" font-weight="bold" fill="#6B46C1">i-node</text>
  <text x="820" y="115" text-anchor="middle" font-size="9" fill="#718096">/tmp/fd</text>
  <text x="820" y="130" text-anchor="middle" font-size="9" fill="#718096">write.txt</text>
  <text x="820" y="158" text-anchor="middle" font-size="9" fill="#718096">regular | 644</text>

  <!-- ===================== ARROWS: FDs → OFD ===================== -->
  <line x1="288" y1="146" x2="390" y2="125" stroke="#2B6CB0" stroke-width="1.5" marker-end="url(#arr-b)"/>
  <line x1="288" y1="178" x2="390" y2="133" stroke="#2B6CB0" stroke-width="1.5" marker-end="url(#arr-b)"/>

  <!-- ARROW: OFD → i-node -->
  <line x1="700" y1="122" x2="737" y2="122" stroke="#B7791F" stroke-width="1.5" marker-end="url(#arr-o)"/>

  <!-- ===================== FILE CONTENT VISUALIZATION ===================== -->
  <text x="50" y="220" font-size="11" font-weight="bold" fill="#1A202C">File content visualization:</text>

  <!-- File: label -->
  <text x="50" y="245" font-size="9" fill="#718096">File: /tmp/fdwrite.txt</text>

  <!-- Character boxes -->
  <g id="char-boxes">
    <!-- AAA (blue) - position 0-2 -->
    <rect x="50" y="255" width="30" height="30" fill="#C8E6FF" stroke="#2B6CB0" stroke-width="1.5" rx="2"/>
    <text x="65" y="276" text-anchor="middle" font-size="10" font-weight="bold" fill="#2B6CB0">A</text>

    <rect x="82" y="255" width="30" height="30" fill="#C8E6FF" stroke="#2B6CB0" stroke-width="1.5" rx="2"/>
    <text x="97" y="276" text-anchor="middle" font-size="10" font-weight="bold" fill="#2B6CB0">A</text>

    <rect x="114" y="255" width="30" height="30" fill="#C8E6FF" stroke="#2B6CB0" stroke-width="1.5" rx="2"/>
    <text x="129" y="276" text-anchor="middle" font-size="10" font-weight="bold" fill="#2B6CB0">A</text>

    <!-- BBB (darker blue) - position 3-5 -->
    <rect x="146" y="255" width="30" height="30" fill="#9BCAF5" stroke="#1E40AF" stroke-width="1.5" rx="2"/>
    <text x="161" y="276" text-anchor="middle" font-size="10" font-weight="bold" fill="#1E40AF">B</text>

    <rect x="178" y="255" width="30" height="30" fill="#9BCAF5" stroke="#1E40AF" stroke-width="1.5" rx="2"/>
    <text x="193" y="276" text-anchor="middle" font-size="10" font-weight="bold" fill="#1E40AF">B</text>

    <rect x="210" y="255" width="30" height="30" fill="#9BCAF5" stroke="#1E40AF" stroke-width="1.5" rx="2"/>
    <text x="225" y="276" text-anchor="middle" font-size="10" font-weight="bold" fill="#1E40AF">B</text>

    <!-- Remaining (gray) - position 6-9 -->
    <rect x="242" y="255" width="30" height="30" fill="#E5E7EB" stroke="#9CA3AF" stroke-width="1.5" rx="2"/>
    <text x="257" y="276" text-anchor="middle" font-size="10" fill="#6B7280">6</text>

    <rect x="274" y="255" width="30" height="30" fill="#E5E7EB" stroke="#9CA3AF" stroke-width="1.5" rx="2"/>
    <text x="289" y="276" text-anchor="middle" font-size="10" fill="#6B7280">7</text>

    <rect x="306" y="255" width="30" height="30" fill="#E5E7EB" stroke="#9CA3AF" stroke-width="1.5" rx="2"/>
    <text x="321" y="276" text-anchor="middle" font-size="10" fill="#6B7280">8</text>

    <rect x="338" y="255" width="30" height="30" fill="#E5E7EB" stroke="#9CA3AF" stroke-width="1.5" rx="2"/>
    <text x="353" y="276" text-anchor="middle" font-size="10" fill="#6B7280">9</text>
  </g>

  <!-- Position labels below -->
  <text x="65" y="300" text-anchor="middle" font-size="8" fill="#718096">0</text>
  <text x="97" y="300" text-anchor="middle" font-size="8" fill="#718096">1</text>
  <text x="129" y="300" text-anchor="middle" font-size="8" fill="#718096">2</text>
  <text x="161" y="300" text-anchor="middle" font-size="8" fill="#718096">3</text>
  <text x="193" y="300" text-anchor="middle" font-size="8" fill="#718096">4</text>
  <text x="225" y="300" text-anchor="middle" font-size="8" fill="#718096">5</text>
  <text x="257" y="300" text-anchor="middle" font-size="8" fill="#718096">6</text>
  <text x="289" y="300" text-anchor="middle" font-size="8" fill="#718096">7</text>
  <text x="321" y="300" text-anchor="middle" font-size="8" fill="#718096">8</text>
  <text x="353" y="300" text-anchor="middle" font-size="8" fill="#718096">9</text>

  <!-- ===================== PROOF ANNOTATION ===================== -->
  <rect x="50" y="330" width="860" height="150" fill="#F7FAFC" stroke="#E2E8F0" rx="6"/>
  <text x="64" y="354" font-size="10" font-weight="bold" fill="#1A202C">B&#x1EB1;ng ch&#x1EE9;ng th&#x1EF1;c nghi&#x1EC7;m:</text>

  <text x="64" y="374" font-size="10" fill="#2B6CB0">FD 3 ghi AAA: write(3, &#x201C;AAA&#x201D;, 3) &#x2192; pos[OFD W]: 0 &#x2192; 3</text>
  <text x="64" y="392" font-size="9" fill="#718096">File content sau write FD 3: [A][A][A][...4 bytes d&#x1EED; ...]</text>

  <text x="64" y="410" font-size="10" fill="#1E40AF">FD 4 ghi BBB: write(4, &#x201C;BBB&#x201D;, 3) &#x2192; pos[OFD W]: 3 &#x2192; 6</text>
  <text x="64" y="428" font-size="9" fill="#718096">File content sau write FD 4: [A][A][A][B][B][B][...] (BBB n&#x1ED1;i ti&#x1EBF;p AAA, kh&#xF4;ng &#x111;&#xE8;)</text>

  <text x="64" y="446" font-size="10" fill="#2B6CB0">Nh&#x1EAD;n x&#xE9;t: FD 3 v&#xE0; FD 4 chia s&#x1EBB; c&#xF9;ng OFD &#x2192; pos t&#xE0;i k&#x1EE9;c &#x2013; g&#x1EDF;i &#x201C;file position sharing&#x201D;</text>
  <text x="64" y="464" font-size="9" fill="#718096">(Kh&#xE1;c v&#x1EDB;i 2 OFD ri&#xEA;ng l&#x1EAB;p: m&#x1ED7;i FD/OFD c&#xF3; pos ri&#xEA;ng &#x2192; c&#xF3; th&#x1EC3; &#x111;&#xE8;</text>
</svg>