<?xml version="1.0" encoding="UTF-8"?>
<svg id="uuid-e9a7b461-cd87-4ca8-a428-0bafdc890098" data-name="Layer 1" xmlns="http://www.w3.org/2000/svg" width="612" height="226.682" viewBox="0 0 612 226.682">
  <defs>
    <style>
      .uuid-5b88a8dc-7b4e-4850-907f-2a593768c60c, .uuid-6f4c4000-6e82-456b-a097-6785269e9f1b {
        stroke-linecap: round;
        stroke-linejoin: round;
      }

      .uuid-5b88a8dc-7b4e-4850-907f-2a593768c60c, .uuid-6f4c4000-6e82-456b-a097-6785269e9f1b, .uuid-e0badc00-4a08-471c-83f4-4d516a691d1b, .uuid-3fa9c3b5-9093-4b9a-b71f-285f34d6944a {
        fill: none;
      }

      .uuid-5b88a8dc-7b4e-4850-907f-2a593768c60c, .uuid-6f4c4000-6e82-456b-a097-6785269e9f1b, .uuid-3fa9c3b5-9093-4b9a-b71f-285f34d6944a {
        stroke: #8c8c8c;
      }

      .uuid-6f4c4000-6e82-456b-a097-6785269e9f1b {
        stroke-dasharray: 0 0 3.073 3.073;
      }

      .uuid-aedb10cc-00d5-4629-8252-9f11a076d84c {
        fill: #8c8c8c;
      }

      .uuid-cdbe2b9c-18c2-4d5e-8508-dccdb51c1853 {
        fill: #231f20;
      }

      .uuid-e0badc00-4a08-471c-83f4-4d516a691d1b {
        stroke: #000;
      }

      .uuid-e0badc00-4a08-471c-83f4-4d516a691d1b, .uuid-3fa9c3b5-9093-4b9a-b71f-285f34d6944a {
        stroke-miterlimit: 10;
      }
    </style>
  </defs>
  <g>
    <line class="uuid-e0badc00-4a08-471c-83f4-4d516a691d1b" x1="59.681" y1="144.369" x2="581.809" y2="144.369"/>
    <polygon points="580.715 148.109 587.191 144.369 580.715 140.63 580.715 148.109"/>
  </g>
  <line class="uuid-e0badc00-4a08-471c-83f4-4d516a691d1b" x1="76.194" y1="19.856" x2="76.194" y2="165.345"/>
  <line class="uuid-e0badc00-4a08-471c-83f4-4d516a691d1b" x1="402.429" y1="19.856" x2="402.429" y2="165.345"/>
  <line class="uuid-e0badc00-4a08-471c-83f4-4d516a691d1b" x1="542.563" y1="54.419" x2="542.563" y2="165.345"/>
  <g>
    <line class="uuid-3fa9c3b5-9093-4b9a-b71f-285f34d6944a" x1="406.243" y1="113.099" x2="538.918" y2="113.099"/>
    <rect class="uuid-aedb10cc-00d5-4629-8252-9f11a076d84c" x="405.743" y="109.849" width="1" height="6.5"/>
    <rect class="uuid-aedb10cc-00d5-4629-8252-9f11a076d84c" x="538.418" y="109.849" width="1" height="6.5"/>
  </g>
  <g>
    <line class="uuid-3fa9c3b5-9093-4b9a-b71f-285f34d6944a" x1="79.808" y1="45.912" x2="398.72" y2="45.912"/>
    <rect class="uuid-aedb10cc-00d5-4629-8252-9f11a076d84c" x="79.308" y="42.662" width="1" height="6.5"/>
    <rect class="uuid-aedb10cc-00d5-4629-8252-9f11a076d84c" x="398.22" y="42.662" width="1" height="6.5"/>
  </g>
  <g>
    <line class="uuid-3fa9c3b5-9093-4b9a-b71f-285f34d6944a" x1="79.808" y1="130.583" x2="166.009" y2="130.583"/>
    <rect class="uuid-aedb10cc-00d5-4629-8252-9f11a076d84c" x="79.308" y="127.333" width="1" height="6.5"/>
    <rect class="uuid-aedb10cc-00d5-4629-8252-9f11a076d84c" x="165.509" y="127.333" width="1" height="6.5"/>
  </g>
  <g>
    <line class="uuid-3fa9c3b5-9093-4b9a-b71f-285f34d6944a" x1="310.519" y1="130.583" x2="398.643" y2="130.583"/>
    <rect class="uuid-aedb10cc-00d5-4629-8252-9f11a076d84c" x="310.019" y="127.333" width="1" height="6.5"/>
    <rect class="uuid-aedb10cc-00d5-4629-8252-9f11a076d84c" x="398.143" y="127.333" width="1" height="6.5"/>
  </g>
  <g>
    <line class="uuid-5b88a8dc-7b4e-4850-907f-2a593768c60c" x1="306" y1="61.86" x2="306" y2="63.36"/>
    <line class="uuid-6f4c4000-6e82-456b-a097-6785269e9f1b" x1="306" y1="66.433" x2="306" y2="138.648"/>
    <line class="uuid-5b88a8dc-7b4e-4850-907f-2a593768c60c" x1="306" y1="140.185" x2="306" y2="141.685"/>
  </g>
  <g>
    <line class="uuid-5b88a8dc-7b4e-4850-907f-2a593768c60c" x1="169.818" y1="61.86" x2="169.818" y2="63.36"/>
    <line class="uuid-6f4c4000-6e82-456b-a097-6785269e9f1b" x1="169.818" y1="66.433" x2="169.818" y2="138.648"/>
    <line class="uuid-5b88a8dc-7b4e-4850-907f-2a593768c60c" x1="169.818" y1="140.185" x2="169.818" y2="141.685"/>
  </g>
  <g>
    <path class="uuid-cdbe2b9c-18c2-4d5e-8508-dccdb51c1853" d="M206.185,31.323h1.129v.8c.37-.58,.87-.88,1.489-.88,.669,0,1.209,.38,1.469,.97,.379-.64,.949-.97,1.659-.97,.97,0,1.639,.75,1.639,1.819v3.268h-1.129v-3.028c0-.7-.39-1.149-1.009-1.149-.41,0-.74,.2-1.009,.59,.01,.11,.02,.21,.02,.32v3.268h-1.129v-3.028c0-.7-.39-1.149-1.01-1.149-.4,0-.729,.19-.989,.57v3.608h-1.129v-5.007Z"/>
    <path class="uuid-cdbe2b9c-18c2-4d5e-8508-dccdb51c1853" d="M214.694,34.891c0-.899,.729-1.469,1.909-1.469,.47,0,.899,.1,1.349,.31v-.55c0-.66-.38-1-1.149-1-.42,0-.879,.12-1.459,.39l-.4-.82c.75-.35,1.409-.51,2.079-.51,1.299,0,2.049,.66,2.049,1.819v3.268h-1.119v-.51c-.45,.41-.919,.59-1.489,.59-1.049,0-1.769-.62-1.769-1.52Zm2.079,.73c.45,0,.839-.13,1.179-.41v-.82c-.36-.17-.72-.24-1.159-.24-.64,0-1.04,.28-1.04,.72,0,.459,.4,.75,1.02,.75Z"/>
    <path class="uuid-cdbe2b9c-18c2-4d5e-8508-dccdb51c1853" d="M221.744,33.782l-1.829-2.458h1.319l1.169,1.649,1.169-1.649h1.259l-1.799,2.429,1.939,2.579h-1.329l-1.259-1.769-1.259,1.769h-1.259l1.879-2.549Z"/>
    <path class="uuid-cdbe2b9c-18c2-4d5e-8508-dccdb51c1853" d="M231.612,35.661c-.35,.45-.91,.719-1.54,.719-1.269,0-2.269-1.129-2.269-2.548,0-1.429,1.029-2.549,2.339-2.549,.58,0,1.089,.24,1.459,.66v-2.758l1.129-.19v7.336h-1.119v-.669Zm-1.2-.23c.48,0,.89-.19,1.189-.55v-2.109c-.29-.34-.72-.54-1.189-.54-.859,0-1.489,.68-1.489,1.599,0,.909,.64,1.599,1.489,1.599Z"/>
    <path class="uuid-cdbe2b9c-18c2-4d5e-8508-dccdb51c1853" d="M233.884,34.891c0-.899,.729-1.469,1.909-1.469,.47,0,.899,.1,1.349,.31v-.55c0-.66-.38-1-1.149-1-.42,0-.879,.12-1.459,.39l-.4-.82c.75-.35,1.409-.51,2.079-.51,1.299,0,2.049,.66,2.049,1.819v3.268h-1.119v-.51c-.45,.41-.919,.59-1.489,.59-1.049,0-1.769-.62-1.769-1.52Zm2.079,.73c.45,0,.839-.13,1.179-.41v-.82c-.36-.17-.72-.24-1.159-.24-.64,0-1.04,.28-1.04,.72,0,.459,.4,.75,1.02,.75Z"/>
    <path class="uuid-cdbe2b9c-18c2-4d5e-8508-dccdb51c1853" d="M240.813,36.36l-1.889-5.037h1.259l1.27,3.718,1.399-3.718h1.229l-2.378,5.827c-.38,.959-.85,1.319-1.779,1.319-.17,0-.37-.02-.57-.07v-.969c.27,.03,.34,.04,.44,.04,.4,0,.649-.18,.81-.58l.21-.53Z"/>
    <path class="uuid-cdbe2b9c-18c2-4d5e-8508-dccdb51c1853" d="M244.984,34.991c.649,.41,1.099,.57,1.609,.57,.6,0,1.009-.27,1.009-.67,0-.31-.209-.479-.689-.569l-.89-.15c-.969-.18-1.449-.63-1.449-1.379,0-.939,.77-1.549,1.939-1.549,.7,0,1.33,.19,1.969,.6l-.53,.739c-.52-.33-1-.479-1.509-.479-.52,0-.859,.22-.859,.589,0,.32,.18,.46,.709,.55l.879,.16c1,.19,1.479,.649,1.479,1.399,0,.919-.88,1.629-2.039,1.629-.87,0-1.629-.24-2.159-.68l.53-.76Z"/>
    <path class="uuid-cdbe2b9c-18c2-4d5e-8508-dccdb51c1853" d="M254.353,29.225l.6,.719c-1.29,.82-1.999,2.219-1.999,3.938,0,1.729,.709,3.118,1.999,3.938l-.6,.729c-1.569-.969-2.419-2.619-2.419-4.667s.85-3.698,2.419-4.657Z"/>
    <path class="uuid-cdbe2b9c-18c2-4d5e-8508-dccdb51c1853" d="M259.432,33.022v.949h-3.478v-.949h3.478Z"/>
    <path class="uuid-cdbe2b9c-18c2-4d5e-8508-dccdb51c1853" d="M261.953,30.844v5.487h-1.109v-6.996h1.559l2.049,4.238,2.039-4.238h1.559v6.996h-1.129v-5.457l-2.479,4.958-2.489-4.987Z"/>
    <path class="uuid-cdbe2b9c-18c2-4d5e-8508-dccdb51c1853" d="M269.933,38.549l-.6-.72c1.29-.819,1.999-2.219,1.999-3.938,0-1.729-.709-3.119-1.999-3.938l.6-.729c1.569,.969,2.419,2.619,2.419,4.667s-.85,3.698-2.419,4.657Z"/>
  </g>
  <g>
    <path class="uuid-cdbe2b9c-18c2-4d5e-8508-dccdb51c1853" d="M105.024,106.091h1.129v.8c.37-.58,.87-.88,1.489-.88,.669,0,1.209,.38,1.469,.97,.379-.64,.949-.97,1.659-.97,.97,0,1.639,.75,1.639,1.819v3.268h-1.129v-3.028c0-.7-.39-1.149-1.009-1.149-.41,0-.74,.2-1.009,.59,.01,.11,.02,.21,.02,.32v3.268h-1.129v-3.028c0-.7-.39-1.149-1.01-1.149-.4,0-.729,.19-.989,.57v3.608h-1.129v-5.007Z"/>
    <path class="uuid-cdbe2b9c-18c2-4d5e-8508-dccdb51c1853" d="M113.644,104.382c0-.38,.32-.7,.7-.7,.39,0,.709,.32,.709,.7,0,.39-.31,.689-.709,.689-.39,0-.7-.3-.7-.689Zm1.27,6.716h-1.129v-5.007h1.129v5.007Z"/>
    <path class="uuid-cdbe2b9c-18c2-4d5e-8508-dccdb51c1853" d="M116.304,106.091h1.129v.82c.38-.59,.919-.9,1.589-.9,1.02,0,1.729,.74,1.729,1.789v3.298h-1.129v-2.979c0-.729-.43-1.199-1.099-1.199-.45,0-.82,.21-1.089,.6v3.578h-1.129v-5.007Z"/>
    <path class="uuid-cdbe2b9c-18c2-4d5e-8508-dccdb51c1853" d="M127.952,110.429c-.35,.45-.91,.719-1.54,.719-1.269,0-2.269-1.129-2.269-2.548,0-1.429,1.029-2.549,2.339-2.549,.58,0,1.089,.24,1.459,.66v-2.758l1.129-.19v7.336h-1.119v-.669Zm-1.2-.23c.48,0,.89-.19,1.189-.55v-2.109c-.29-.34-.72-.54-1.189-.54-.859,0-1.489,.68-1.489,1.599,0,.909,.64,1.599,1.489,1.599Z"/>
    <path class="uuid-cdbe2b9c-18c2-4d5e-8508-dccdb51c1853" d="M130.224,109.659c0-.899,.729-1.469,1.909-1.469,.47,0,.899,.1,1.349,.31v-.55c0-.66-.38-1-1.149-1-.42,0-.879,.12-1.459,.39l-.4-.82c.75-.35,1.409-.51,2.079-.51,1.299,0,2.049,.66,2.049,1.819v3.268h-1.119v-.51c-.45,.41-.919,.59-1.489,.59-1.049,0-1.769-.62-1.769-1.52Zm2.079,.73c.45,0,.839-.13,1.179-.41v-.82c-.36-.17-.72-.24-1.159-.24-.64,0-1.04,.28-1.04,.72,0,.459,.4,.75,1.02,.75Z"/>
    <path class="uuid-cdbe2b9c-18c2-4d5e-8508-dccdb51c1853" d="M137.153,111.128l-1.889-5.037h1.259l1.27,3.718,1.399-3.718h1.229l-2.378,5.827c-.38,.959-.85,1.319-1.779,1.319-.17,0-.37-.02-.57-.07v-.969c.27,.03,.34,.04,.44,.04,.4,0,.649-.18,.81-.58l.21-.53Z"/>
    <path class="uuid-cdbe2b9c-18c2-4d5e-8508-dccdb51c1853" d="M141.324,109.759c.649,.41,1.099,.57,1.609,.57,.6,0,1.009-.27,1.009-.67,0-.31-.209-.479-.689-.569l-.89-.15c-.969-.18-1.449-.63-1.449-1.379,0-.939,.77-1.549,1.939-1.549,.7,0,1.33,.19,1.969,.6l-.53,.739c-.52-.33-1-.479-1.509-.479-.52,0-.859,.22-.859,.589,0,.32,.18,.46,.709,.55l.879,.16c1,.19,1.479,.649,1.479,1.399,0,.919-.88,1.629-2.039,1.629-.87,0-1.629-.24-2.159-.68l.53-.76Z"/>
    <path class="uuid-cdbe2b9c-18c2-4d5e-8508-dccdb51c1853" d="M117.108,115.992l.6,.719c-1.29,.82-1.999,2.219-1.999,3.938,0,1.729,.709,3.118,1.999,3.938l-.6,.729c-1.569-.969-2.419-2.619-2.419-4.667s.85-3.698,2.419-4.657Z"/>
    <path class="uuid-cdbe2b9c-18c2-4d5e-8508-dccdb51c1853" d="M122.187,119.79v.949h-3.478v-.949h3.478Z"/>
    <path class="uuid-cdbe2b9c-18c2-4d5e-8508-dccdb51c1853" d="M123.459,118.091h1.129v.8c.37-.58,.87-.88,1.489-.88,.669,0,1.209,.38,1.469,.97,.379-.64,.949-.97,1.659-.97,.97,0,1.639,.75,1.639,1.819v3.268h-1.129v-3.028c0-.7-.39-1.149-1.009-1.149-.41,0-.74,.2-1.009,.59,.01,.11,.02,.21,.02,.32v3.268h-1.129v-3.028c0-.7-.39-1.149-1.01-1.149-.4,0-.729,.19-.989,.57v3.608h-1.129v-5.007Z"/>
    <path class="uuid-cdbe2b9c-18c2-4d5e-8508-dccdb51c1853" d="M132.548,125.317l-.6-.72c1.29-.819,1.999-2.219,1.999-3.938,0-1.729-.709-3.119-1.999-3.938l.6-.729c1.569,.969,2.419,2.619,2.419,4.667s-.85,3.698-2.419,4.657Z"/>
  </g>
  <g>
    <path class="uuid-cdbe2b9c-18c2-4d5e-8508-dccdb51c1853" d="M34.463,143.373h-1.009v-.899h1.009v-1.379l1.129-.24v1.619h1.399v.899h-1.399v2.539c0,.49,.19,.68,.7,.68,.229,0,.379-.03,.68-.12v.949c-.29,.09-.67,.14-.97,.14-1.009,0-1.539-.48-1.539-1.399v-2.789Z"/>
    <path class="uuid-cdbe2b9c-18c2-4d5e-8508-dccdb51c1853" d="M37.843,140.765c0-.38,.32-.7,.7-.7,.39,0,.709,.32,.709,.7,0,.39-.31,.689-.709,.689-.39,0-.7-.3-.7-.689Zm1.27,6.716h-1.129v-5.007h1.129v5.007Z"/>
    <path class="uuid-cdbe2b9c-18c2-4d5e-8508-dccdb51c1853" d="M40.503,142.474h1.129v.8c.37-.58,.87-.88,1.489-.88,.669,0,1.209,.38,1.469,.97,.379-.64,.949-.97,1.659-.97,.97,0,1.639,.75,1.639,1.819v3.268h-1.129v-3.028c0-.7-.39-1.149-1.009-1.149-.41,0-.74,.2-1.009,.59,.01,.11,.02,.21,.02,.32v3.268h-1.129v-3.028c0-.7-.39-1.149-1.01-1.149-.4,0-.729,.19-.989,.57v3.608h-1.129v-5.007Z"/>
    <path class="uuid-cdbe2b9c-18c2-4d5e-8508-dccdb51c1853" d="M51.583,147.581c-1.429,0-2.549-1.14-2.549-2.599,0-1.469,1.049-2.589,2.438-2.589,1.37,0,2.369,1.089,2.369,2.579v.28h-3.698c.11,.79,.729,1.37,1.499,1.37,.47,0,.91-.17,1.189-.47l.74,.689c-.61,.51-1.209,.74-1.989,.74Zm-1.419-3.019h2.608c-.13-.74-.64-1.249-1.309-1.249s-1.169,.49-1.299,1.249Z"/>
  </g>
  <g>
    <path class="uuid-cdbe2b9c-18c2-4d5e-8508-dccdb51c1853" d="M51.378,180.857h-1.129v-7.146l1.129-.19v7.336Z"/>
    <path class="uuid-cdbe2b9c-18c2-4d5e-8508-dccdb51c1853" d="M52.519,179.417c0-.899,.729-1.469,1.909-1.469,.47,0,.899,.1,1.349,.31v-.55c0-.66-.38-1-1.149-1-.42,0-.879,.12-1.459,.39l-.4-.82c.75-.35,1.409-.51,2.079-.51,1.299,0,2.049,.66,2.049,1.819v3.268h-1.119v-.51c-.45,.41-.919,.59-1.489,.59-1.049,0-1.769-.62-1.769-1.52Zm2.079,.73c.45,0,.839-.13,1.179-.41v-.82c-.36-.17-.72-.24-1.159-.24-.64,0-1.04,.28-1.04,.72,0,.459,.4,.75,1.02,.75Z"/>
    <path class="uuid-cdbe2b9c-18c2-4d5e-8508-dccdb51c1853" d="M58.349,179.518c.649,.41,1.099,.57,1.609,.57,.6,0,1.009-.27,1.009-.67,0-.31-.209-.479-.689-.569l-.89-.15c-.969-.18-1.449-.63-1.449-1.379,0-.939,.77-1.549,1.939-1.549,.7,0,1.33,.19,1.969,.6l-.53,.739c-.52-.33-1-.479-1.509-.479-.52,0-.859,.22-.859,.589,0,.32,.18,.46,.709,.55l.879,.16c1,.19,1.479,.649,1.479,1.399,0,.919-.88,1.629-2.039,1.629-.87,0-1.629-.24-2.159-.68l.53-.76Z"/>
    <path class="uuid-cdbe2b9c-18c2-4d5e-8508-dccdb51c1853" d="M63.579,176.749h-1.009v-.899h1.009v-1.379l1.129-.24v1.619h1.399v.899h-1.399v2.539c0,.49,.19,.68,.7,.68,.229,0,.379-.03,.68-.12v.949c-.29,.09-.67,.14-.97,.14-1.009,0-1.539-.48-1.539-1.399v-2.789Z"/>
    <path class="uuid-cdbe2b9c-18c2-4d5e-8508-dccdb51c1853" d="M72.927,179.408l.68,.68c-.47,.54-1.189,.87-1.959,.87-1.419,0-2.529-1.14-2.529-2.599,0-1.449,1.1-2.579,2.529-2.579,.779,0,1.499,.3,1.999,.839l-.699,.729c-.35-.39-.78-.589-1.259-.589-.81,0-1.439,.7-1.439,1.599,0,.909,.63,1.599,1.469,1.599,.479,0,.91-.19,1.209-.55Z"/>
    <path class="uuid-cdbe2b9c-18c2-4d5e-8508-dccdb51c1853" d="M74.579,173.711l1.129-.19v3.148c.38-.59,.919-.9,1.589-.9,1.02,0,1.729,.74,1.729,1.789v3.298h-1.129v-2.979c0-.729-.43-1.199-1.099-1.199-.45,0-.82,.21-1.089,.6v3.578h-1.129v-7.146Z"/>
    <path class="uuid-cdbe2b9c-18c2-4d5e-8508-dccdb51c1853" d="M80.148,179.417c0-.899,.729-1.469,1.909-1.469,.47,0,.899,.1,1.349,.31v-.55c0-.66-.38-1-1.149-1-.42,0-.879,.12-1.459,.39l-.4-.82c.75-.35,1.409-.51,2.079-.51,1.299,0,2.049,.66,2.049,1.819v3.268h-1.119v-.51c-.45,.41-.919,.59-1.489,.59-1.049,0-1.769-.62-1.769-1.52Zm2.079,.73c.45,0,.839-.13,1.179-.41v-.82c-.36-.17-.72-.24-1.159-.24-.64,0-1.04,.28-1.04,.72,0,.459,.4,.75,1.02,.75Z"/>
    <path class="uuid-cdbe2b9c-18c2-4d5e-8508-dccdb51c1853" d="M85.898,175.85h1.129v.82c.38-.59,.919-.9,1.589-.9,1.02,0,1.729,.74,1.729,1.789v3.298h-1.129v-2.979c0-.729-.43-1.199-1.099-1.199-.45,0-.82,.21-1.089,.6v3.578h-1.129v-5.007Z"/>
    <path class="uuid-cdbe2b9c-18c2-4d5e-8508-dccdb51c1853" d="M91.488,178.348c0-1.429,1.029-2.539,2.339-2.539,.58,0,1.099,.24,1.469,.68v-.64h1.119v5.177c0,1.289-.839,1.999-2.359,1.999-.719,0-1.419-.17-2.009-.48l.4-.839c.58,.29,1.06,.43,1.559,.43,.84,0,1.279-.38,1.279-1.109v-.85c-.35,.44-.909,.709-1.529,.709-1.269,0-2.269-1.129-2.269-2.539Zm2.608,1.599c.48,0,.89-.19,1.189-.549v-2.099c-.29-.34-.72-.54-1.189-.54-.859,0-1.489,.669-1.489,1.589,0,.91,.64,1.599,1.489,1.599Z"/>
    <path class="uuid-cdbe2b9c-18c2-4d5e-8508-dccdb51c1853" d="M100.127,180.957c-1.429,0-2.549-1.14-2.549-2.599,0-1.469,1.049-2.589,2.438-2.589,1.37,0,2.369,1.089,2.369,2.579v.28h-3.698c.11,.79,.729,1.37,1.499,1.37,.47,0,.91-.17,1.189-.47l.74,.689c-.61,.51-1.209,.74-1.989,.74Zm-1.419-3.019h2.608c-.13-.74-.64-1.249-1.309-1.249s-1.169,.49-1.299,1.249Z"/>
    <path class="uuid-cdbe2b9c-18c2-4d5e-8508-dccdb51c1853" d="M59.172,192.188c-.35,.45-.91,.719-1.54,.719-1.269,0-2.269-1.129-2.269-2.548,0-1.429,1.029-2.549,2.339-2.549,.58,0,1.089,.24,1.459,.66v-2.758l1.129-.19v7.336h-1.119v-.669Zm-1.2-.23c.48,0,.89-.19,1.189-.55v-2.109c-.29-.34-.72-.54-1.189-.54-.859,0-1.489,.68-1.489,1.599,0,.909,.64,1.599,1.489,1.599Z"/>
    <path class="uuid-cdbe2b9c-18c2-4d5e-8508-dccdb51c1853" d="M61.444,191.417c0-.899,.729-1.469,1.909-1.469,.47,0,.899,.1,1.349,.31v-.55c0-.66-.38-1-1.149-1-.42,0-.879,.12-1.459,.39l-.4-.82c.75-.35,1.409-.51,2.079-.51,1.299,0,2.049,.66,2.049,1.819v3.268h-1.119v-.51c-.45,.41-.919,.59-1.489,.59-1.049,0-1.769-.62-1.769-1.52Zm2.079,.73c.45,0,.839-.13,1.179-.41v-.82c-.36-.17-.72-.24-1.159-.24-.64,0-1.04,.28-1.04,.72,0,.459,.4,.75,1.02,.75Z"/>
    <path class="uuid-cdbe2b9c-18c2-4d5e-8508-dccdb51c1853" d="M67.664,188.749h-1.009v-.899h1.009v-1.379l1.129-.24v1.619h1.399v.899h-1.399v2.539c0,.49,.19,.68,.7,.68,.229,0,.379-.03,.68-.12v.949c-.29,.09-.67,.14-.97,.14-1.009,0-1.539-.48-1.539-1.399v-2.789Z"/>
    <path class="uuid-cdbe2b9c-18c2-4d5e-8508-dccdb51c1853" d="M73.433,192.957c-1.429,0-2.549-1.14-2.549-2.599,0-1.469,1.049-2.589,2.438-2.589,1.37,0,2.369,1.089,2.369,2.579v.28h-3.698c.11,.79,.729,1.37,1.499,1.37,.47,0,.91-.17,1.189-.47l.74,.689c-.61,.51-1.209,.74-1.989,.74Zm-1.419-3.019h2.608c-.13-.74-.64-1.249-1.309-1.249s-1.169,.49-1.299,1.249Z"/>
    <path class="uuid-cdbe2b9c-18c2-4d5e-8508-dccdb51c1853" d="M81.502,185.751l.6,.719c-1.29,.82-1.999,2.219-1.999,3.938,0,1.729,.709,3.118,1.999,3.938l-.6,.729c-1.569-.969-2.419-2.619-2.419-4.667s.85-3.698,2.419-4.657Z"/>
    <path class="uuid-cdbe2b9c-18c2-4d5e-8508-dccdb51c1853" d="M86.582,189.549v.949h-3.478v-.949h3.478Z"/>
    <path class="uuid-cdbe2b9c-18c2-4d5e-8508-dccdb51c1853" d="M91.532,192.188c-.35,.45-.91,.719-1.54,.719-1.269,0-2.269-1.129-2.269-2.548,0-1.429,1.029-2.549,2.339-2.549,.58,0,1.089,.24,1.459,.66v-2.758l1.129-.19v7.336h-1.119v-.669Zm-1.2-.23c.48,0,.89-.19,1.189-.55v-2.109c-.29-.34-.72-.54-1.189-.54-.859,0-1.489,.68-1.489,1.599,0,.909,.64,1.599,1.489,1.599Z"/>
    <path class="uuid-cdbe2b9c-18c2-4d5e-8508-dccdb51c1853" d="M94.383,195.076l-.6-.72c1.29-.819,1.999-2.219,1.999-3.938,0-1.729-.709-3.119-1.999-3.938l.6-.729c1.569,.969,2.419,2.619,2.419,4.667s-.85,3.698-2.419,4.657Z"/>
  </g>
  <g>
    <path class="uuid-cdbe2b9c-18c2-4d5e-8508-dccdb51c1853" d="M380.969,175.85h1.109v.72c.35-.48,.909-.76,1.559-.76,1.27,0,2.269,1.129,2.269,2.549,0,1.429-1.029,2.548-2.349,2.548-.589,0-1.099-.229-1.459-.649v2.718h-1.129v-7.126Zm1.129,1.469v2.089c.29,.35,.72,.55,1.199,.55,.859,0,1.489-.68,1.489-1.599,0-.91-.64-1.599-1.489-1.599-.499,0-.899,.19-1.199,.56Z"/>
    <path class="uuid-cdbe2b9c-18c2-4d5e-8508-dccdb51c1853" d="M386.878,179.417c0-.899,.729-1.469,1.909-1.469,.47,0,.899,.1,1.35,.31v-.55c0-.66-.38-1-1.149-1-.42,0-.88,.12-1.459,.39l-.4-.82c.75-.35,1.409-.51,2.079-.51,1.299,0,2.049,.66,2.049,1.819v3.268h-1.119v-.51c-.45,.41-.92,.59-1.489,.59-1.05,0-1.77-.62-1.77-1.52Zm2.079,.73c.45,0,.84-.13,1.18-.41v-.82c-.36-.17-.72-.24-1.159-.24-.64,0-1.04,.28-1.04,.72,0,.459,.4,.75,1.02,.75Z"/>
    <path class="uuid-cdbe2b9c-18c2-4d5e-8508-dccdb51c1853" d="M392.708,179.518c.649,.41,1.1,.57,1.609,.57,.6,0,1.009-.27,1.009-.67,0-.31-.209-.479-.689-.569l-.89-.15c-.969-.18-1.449-.63-1.449-1.379,0-.939,.77-1.549,1.939-1.549,.699,0,1.329,.19,1.969,.6l-.529,.739c-.521-.33-1-.479-1.51-.479-.52,0-.859,.22-.859,.589,0,.32,.18,.46,.71,.55l.879,.16c1,.19,1.479,.649,1.479,1.399,0,.919-.88,1.629-2.039,1.629-.869,0-1.629-.24-2.158-.68l.529-.76Z"/>
    <path class="uuid-cdbe2b9c-18c2-4d5e-8508-dccdb51c1853" d="M397.538,179.518c.649,.41,1.1,.57,1.609,.57,.6,0,1.009-.27,1.009-.67,0-.31-.209-.479-.689-.569l-.89-.15c-.969-.18-1.449-.63-1.449-1.379,0-.939,.77-1.549,1.939-1.549,.699,0,1.329,.19,1.969,.6l-.529,.739c-.521-.33-1-.479-1.51-.479-.52,0-.859,.22-.859,.589,0,.32,.18,.46,.71,.55l.879,.16c1,.19,1.479,.649,1.479,1.399,0,.919-.88,1.629-2.039,1.629-.869,0-1.629-.24-2.158-.68l.529-.76Z"/>
    <path class="uuid-cdbe2b9c-18c2-4d5e-8508-dccdb51c1853" d="M403.127,180.857l-1.349-5.007h1.079l.88,3.538,1.029-3.538h.959l1.029,3.548,.87-3.548h1.06l-1.35,5.007h-1.09l-1.009-3.528-1.01,3.528h-1.1Z"/>
    <path class="uuid-cdbe2b9c-18c2-4d5e-8508-dccdb51c1853" d="M411.807,175.77c1.439,0,2.519,1.12,2.519,2.589,0,1.479-1.09,2.599-2.519,2.599s-2.519-1.129-2.519-2.599,1.089-2.589,2.519-2.589Zm1.399,2.599c0-.949-.59-1.629-1.399-1.629-.819,0-1.399,.68-1.399,1.629,0,.939,.58,1.609,1.399,1.609s1.399-.68,1.399-1.609Z"/>
    <path class="uuid-cdbe2b9c-18c2-4d5e-8508-dccdb51c1853" d="M415.498,175.85h1.129v1.089c.27-.77,.75-1.179,1.379-1.179,.19,.01,.32,.03,.49,.1v.989c-.18-.08-.41-.12-.62-.12-.539,0-.999,.31-1.249,.83v3.298h-1.129v-5.007Z"/>
    <path class="uuid-cdbe2b9c-18c2-4d5e-8508-dccdb51c1853" d="M422.766,180.188c-.35,.45-.909,.719-1.539,.719-1.27,0-2.269-1.129-2.269-2.548,0-1.429,1.029-2.549,2.339-2.549,.579,0,1.089,.24,1.459,.66v-2.758l1.129-.19v7.336h-1.119v-.669Zm-1.199-.23c.479,0,.89-.19,1.189-.55v-2.109c-.29-.34-.72-.54-1.189-.54-.859,0-1.489,.68-1.489,1.599,0,.909,.64,1.599,1.489,1.599Z"/>
    <path class="uuid-cdbe2b9c-18c2-4d5e-8508-dccdb51c1853" d="M381.978,192.957c-1.43,0-2.549-1.14-2.549-2.599,0-1.469,1.049-2.589,2.438-2.589,1.369,0,2.368,1.089,2.368,2.579v.28h-3.697c.109,.79,.729,1.37,1.499,1.37,.47,0,.909-.17,1.189-.47l.739,.689c-.609,.51-1.209,.74-1.988,.74Zm-1.42-3.019h2.608c-.13-.74-.64-1.249-1.309-1.249s-1.17,.49-1.3,1.249Z"/>
    <path class="uuid-cdbe2b9c-18c2-4d5e-8508-dccdb51c1853" d="M386.357,190.308l-1.829-2.458h1.319l1.17,1.649,1.169-1.649h1.26l-1.8,2.429,1.939,2.579h-1.329l-1.26-1.769-1.259,1.769h-1.26l1.879-2.549Z"/>
    <path class="uuid-cdbe2b9c-18c2-4d5e-8508-dccdb51c1853" d="M390.398,187.85h1.109v.72c.35-.48,.909-.76,1.56-.76,1.269,0,2.269,1.129,2.269,2.549,0,1.429-1.029,2.548-2.349,2.548-.59,0-1.1-.229-1.459-.649v2.718h-1.13v-7.126Zm1.13,1.469v2.089c.289,.35,.72,.55,1.199,.55,.859,0,1.489-.68,1.489-1.599,0-.91-.64-1.599-1.489-1.599-.5,0-.899,.19-1.199,.56Z"/>
    <path class="uuid-cdbe2b9c-18c2-4d5e-8508-dccdb51c1853" d="M396.368,186.141c0-.38,.32-.7,.7-.7,.39,0,.709,.32,.709,.7,0,.39-.31,.689-.709,.689-.39,0-.7-.3-.7-.689Zm1.27,6.716h-1.129v-5.007h1.129v5.007Z"/>
    <path class="uuid-cdbe2b9c-18c2-4d5e-8508-dccdb51c1853" d="M399.028,187.85h1.13v1.089c.27-.77,.749-1.179,1.379-1.179,.189,.01,.319,.03,.489,.1v.989c-.18-.08-.409-.12-.619-.12-.54,0-1,.31-1.249,.83v3.298h-1.13v-5.007Z"/>
    <path class="uuid-cdbe2b9c-18c2-4d5e-8508-dccdb51c1853" d="M402.538,191.417c0-.899,.729-1.469,1.909-1.469,.47,0,.899,.1,1.35,.31v-.55c0-.66-.38-1-1.149-1-.42,0-.88,.12-1.459,.39l-.4-.82c.75-.35,1.409-.51,2.079-.51,1.299,0,2.049,.66,2.049,1.819v3.268h-1.119v-.51c-.45,.41-.92,.59-1.489,.59-1.05,0-1.77-.62-1.77-1.52Zm2.079,.73c.45,0,.84-.13,1.18-.41v-.82c-.36-.17-.72-.24-1.159-.24-.64,0-1.04,.28-1.04,.72,0,.459,.4,.75,1.02,.75Z"/>
    <path class="uuid-cdbe2b9c-18c2-4d5e-8508-dccdb51c1853" d="M408.758,188.749h-1.009v-.899h1.009v-1.379l1.13-.24v1.619h1.398v.899h-1.398v2.539c0,.49,.189,.68,.699,.68,.229,0,.38-.03,.68-.12v.949c-.29,.09-.67,.14-.97,.14-1.009,0-1.539-.48-1.539-1.399v-2.789Z"/>
    <path class="uuid-cdbe2b9c-18c2-4d5e-8508-dccdb51c1853" d="M412.138,186.141c0-.38,.32-.7,.7-.7,.39,0,.709,.32,.709,.7,0,.39-.31,.689-.709,.689-.39,0-.7-.3-.7-.689Zm1.27,6.716h-1.129v-5.007h1.129v5.007Z"/>
    <path class="uuid-cdbe2b9c-18c2-4d5e-8508-dccdb51c1853" d="M417.087,187.77c1.439,0,2.519,1.12,2.519,2.589,0,1.479-1.09,2.599-2.519,2.599s-2.519-1.129-2.519-2.599,1.089-2.589,2.519-2.589Zm1.399,2.599c0-.949-.59-1.629-1.399-1.629-.819,0-1.399,.68-1.399,1.629,0,.939,.58,1.609,1.399,1.609s1.399-.68,1.399-1.609Z"/>
    <path class="uuid-cdbe2b9c-18c2-4d5e-8508-dccdb51c1853" d="M420.778,187.85h1.129v.82c.38-.59,.92-.9,1.589-.9,1.02,0,1.729,.74,1.729,1.789v3.298h-1.13v-2.979c0-.729-.43-1.199-1.099-1.199-.45,0-.82,.21-1.09,.6v3.578h-1.129v-5.007Z"/>
    <path class="uuid-cdbe2b9c-18c2-4d5e-8508-dccdb51c1853" d="M396.081,204.188c-.35,.45-.909,.719-1.539,.719-1.27,0-2.269-1.129-2.269-2.548,0-1.429,1.029-2.549,2.339-2.549,.579,0,1.089,.24,1.459,.66v-2.758l1.129-.19v7.336h-1.119v-.669Zm-1.199-.23c.479,0,.89-.19,1.189-.55v-2.109c-.29-.34-.72-.54-1.189-.54-.859,0-1.489,.68-1.489,1.599,0,.909,.64,1.599,1.489,1.599Z"/>
    <path class="uuid-cdbe2b9c-18c2-4d5e-8508-dccdb51c1853" d="M398.354,203.417c0-.899,.729-1.469,1.909-1.469,.47,0,.899,.1,1.349,.31v-.55c0-.66-.38-1-1.149-1-.42,0-.879,.12-1.459,.39l-.399-.82c.749-.35,1.409-.51,2.078-.51,1.3,0,2.049,.66,2.049,1.819v3.268h-1.119v-.51c-.449,.41-.919,.59-1.489,.59-1.049,0-1.769-.62-1.769-1.52Zm2.079,.73c.449,0,.839-.13,1.179-.41v-.82c-.359-.17-.72-.24-1.159-.24-.64,0-1.039,.28-1.039,.72,0,.459,.399,.75,1.02,.75Z"/>
    <path class="uuid-cdbe2b9c-18c2-4d5e-8508-dccdb51c1853" d="M404.572,200.749h-1.009v-.899h1.009v-1.379l1.13-.24v1.619h1.398v.899h-1.398v2.539c0,.49,.189,.68,.699,.68,.229,0,.38-.03,.68-.12v.949c-.29,.09-.67,.14-.97,.14-1.009,0-1.539-.48-1.539-1.399v-2.789Z"/>
    <path class="uuid-cdbe2b9c-18c2-4d5e-8508-dccdb51c1853" d="M410.342,204.957c-1.43,0-2.549-1.14-2.549-2.599,0-1.469,1.049-2.589,2.438-2.589,1.369,0,2.368,1.089,2.368,2.579v.28h-3.697c.109,.79,.729,1.37,1.499,1.37,.47,0,.909-.17,1.189-.47l.739,.689c-.609,.51-1.209,.74-1.988,.74Zm-1.42-3.019h2.608c-.13-.74-.64-1.249-1.309-1.249s-1.17,.49-1.3,1.249Z"/>
  </g>
  <g>
    <path class="uuid-cdbe2b9c-18c2-4d5e-8508-dccdb51c1853" d="M524.708,174.141c0-.38,.319-.7,.7-.7,.389,0,.709,.32,.709,.7,0,.39-.31,.689-.709,.689-.391,0-.7-.3-.7-.689Zm1.27,6.716h-1.13v-5.007h1.13v5.007Z"/>
    <path class="uuid-cdbe2b9c-18c2-4d5e-8508-dccdb51c1853" d="M527.368,175.85h1.13v.82c.379-.59,.919-.9,1.588-.9,1.02,0,1.729,.74,1.729,1.789v3.298h-1.13v-2.979c0-.729-.43-1.199-1.099-1.199-.45,0-.819,.21-1.089,.6v3.578h-1.13v-5.007Z"/>
    <path class="uuid-cdbe2b9c-18c2-4d5e-8508-dccdb51c1853" d="M532.938,179.417c0-.899,.73-1.469,1.91-1.469,.469,0,.898,.1,1.349,.31v-.55c0-.66-.38-1-1.149-1-.42,0-.879,.12-1.459,.39l-.4-.82c.75-.35,1.41-.51,2.079-.51,1.3,0,2.049,.66,2.049,1.819v3.268h-1.119v-.51c-.45,.41-.919,.59-1.489,.59-1.049,0-1.77-.62-1.77-1.52Zm2.08,.73c.449,0,.839-.13,1.179-.41v-.82c-.36-.17-.72-.24-1.159-.24-.64,0-1.039,.28-1.039,.72,0,.459,.399,.75,1.02,.75Z"/>
    <path class="uuid-cdbe2b9c-18c2-4d5e-8508-dccdb51c1853" d="M542.266,179.408l.68,.68c-.47,.54-1.189,.87-1.959,.87-1.419,0-2.528-1.14-2.528-2.599,0-1.449,1.1-2.579,2.528-2.579,.779,0,1.5,.3,1.999,.839l-.699,.729c-.351-.39-.78-.589-1.26-.589-.81,0-1.438,.7-1.438,1.599,0,.909,.629,1.599,1.469,1.599,.479,0,.91-.19,1.209-.55Z"/>
    <path class="uuid-cdbe2b9c-18c2-4d5e-8508-dccdb51c1853" d="M544.637,176.749h-1.009v-.899h1.009v-1.379l1.13-.24v1.619h1.399v.899h-1.399v2.539c0,.49,.19,.68,.7,.68,.229,0,.379-.03,.68-.12v.949c-.291,.09-.67,.14-.971,.14-1.009,0-1.539-.48-1.539-1.399v-2.789Z"/>
    <path class="uuid-cdbe2b9c-18c2-4d5e-8508-dccdb51c1853" d="M548.018,174.141c0-.38,.32-.7,.699-.7,.391,0,.71,.32,.71,.7,0,.39-.31,.689-.71,.689-.389,0-.699-.3-.699-.689Zm1.27,6.716h-1.129v-5.007h1.129v5.007Z"/>
    <path class="uuid-cdbe2b9c-18c2-4d5e-8508-dccdb51c1853" d="M550.088,175.85h1.229l1.39,3.658,1.389-3.658h1.189l-2.059,5.007h-1.09l-2.049-5.007Z"/>
    <path class="uuid-cdbe2b9c-18c2-4d5e-8508-dccdb51c1853" d="M558.267,180.957c-1.429,0-2.549-1.14-2.549-2.599,0-1.469,1.05-2.589,2.438-2.589,1.369,0,2.369,1.089,2.369,2.579v.28h-3.698c.11,.79,.729,1.37,1.499,1.37,.47,0,.91-.17,1.189-.47l.74,.689c-.61,.51-1.21,.74-1.989,.74Zm-1.419-3.019h2.607c-.129-.74-.639-1.249-1.309-1.249s-1.17,.49-1.299,1.249Z"/>
    <path class="uuid-cdbe2b9c-18c2-4d5e-8508-dccdb51c1853" d="M536.216,192.188c-.351,.45-.909,.719-1.54,.719-1.269,0-2.268-1.129-2.268-2.548,0-1.429,1.029-2.549,2.338-2.549,.58,0,1.09,.24,1.459,.66v-2.758l1.13-.19v7.336h-1.119v-.669Zm-1.2-.23c.48,0,.891-.19,1.189-.55v-2.109c-.289-.34-.719-.54-1.189-.54-.859,0-1.488,.68-1.488,1.599,0,.909,.64,1.599,1.488,1.599Z"/>
    <path class="uuid-cdbe2b9c-18c2-4d5e-8508-dccdb51c1853" d="M538.488,191.417c0-.899,.729-1.469,1.908-1.469,.471,0,.9,.1,1.35,.31v-.55c0-.66-.38-1-1.149-1-.42,0-.88,.12-1.459,.39l-.399-.82c.749-.35,1.408-.51,2.078-.51,1.299,0,2.049,.66,2.049,1.819v3.268h-1.119v-.51c-.449,.41-.92,.59-1.489,.59-1.05,0-1.769-.62-1.769-1.52Zm2.078,.73c.45,0,.84-.13,1.18-.41v-.82c-.359-.17-.72-.24-1.159-.24-.64,0-1.04,.28-1.04,.72,0,.459,.4,.75,1.02,.75Z"/>
    <path class="uuid-cdbe2b9c-18c2-4d5e-8508-dccdb51c1853" d="M544.707,188.749h-1.01v-.899h1.01v-1.379l1.129-.24v1.619h1.399v.899h-1.399v2.539c0,.49,.19,.68,.7,.68,.229,0,.38-.03,.68-.12v.949c-.29,.09-.67,.14-.97,.14-1.01,0-1.539-.48-1.539-1.399v-2.789Z"/>
    <path class="uuid-cdbe2b9c-18c2-4d5e-8508-dccdb51c1853" d="M550.477,192.957c-1.43,0-2.549-1.14-2.549-2.599,0-1.469,1.049-2.589,2.438-2.589,1.37,0,2.369,1.089,2.369,2.579v.28h-3.697c.109,.79,.729,1.37,1.498,1.37,.471,0,.91-.17,1.189-.47l.74,.689c-.609,.51-1.209,.74-1.988,.74Zm-1.42-3.019h2.608c-.13-.74-.64-1.249-1.31-1.249s-1.169,.49-1.299,1.249Z"/>
  </g>
  <g>
    <path class="uuid-cdbe2b9c-18c2-4d5e-8508-dccdb51c1853" d="M332.926,111.099l-1.35-5.007h1.079l.88,3.538,1.029-3.538h.96l1.029,3.548,.869-3.548h1.06l-1.35,5.007h-1.089l-1.01-3.528-1.009,3.528h-1.1Z"/>
    <path class="uuid-cdbe2b9c-18c2-4d5e-8508-dccdb51c1853" d="M339.106,109.659c0-.899,.729-1.469,1.909-1.469,.47,0,.899,.1,1.349,.31v-.55c0-.66-.38-1-1.149-1-.42,0-.879,.12-1.459,.39l-.399-.82c.749-.35,1.409-.51,2.078-.51,1.3,0,2.049,.66,2.049,1.819v3.268h-1.119v-.51c-.449,.41-.919,.59-1.489,.59-1.049,0-1.769-.62-1.769-1.52Zm2.079,.73c.449,0,.839-.13,1.179-.41v-.82c-.359-.17-.72-.24-1.159-.24-.64,0-1.039,.28-1.039,.72,0,.459,.399,.75,1.02,.75Z"/>
    <path class="uuid-cdbe2b9c-18c2-4d5e-8508-dccdb51c1853" d="M344.856,106.091h1.129v1.089c.27-.77,.75-1.179,1.379-1.179,.19,.01,.32,.03,.49,.1v.989c-.18-.08-.41-.12-.62-.12-.539,0-.999,.31-1.249,.83v3.298h-1.129v-5.007Z"/>
    <path class="uuid-cdbe2b9c-18c2-4d5e-8508-dccdb51c1853" d="M348.786,106.091h1.129v.82c.38-.59,.92-.9,1.589-.9,1.02,0,1.729,.74,1.729,1.789v3.298h-1.13v-2.979c0-.729-.43-1.199-1.099-1.199-.45,0-.82,.21-1.09,.6v3.578h-1.129v-5.007Z"/>
    <path class="uuid-cdbe2b9c-18c2-4d5e-8508-dccdb51c1853" d="M360.434,110.429c-.35,.45-.909,.719-1.539,.719-1.27,0-2.269-1.129-2.269-2.548,0-1.429,1.029-2.549,2.339-2.549,.579,0,1.089,.24,1.459,.66v-2.758l1.129-.19v7.336h-1.119v-.669Zm-1.199-.23c.479,0,.89-.19,1.189-.55v-2.109c-.29-.34-.72-.54-1.189-.54-.859,0-1.489,.68-1.489,1.599,0,.909,.64,1.599,1.489,1.599Z"/>
    <path class="uuid-cdbe2b9c-18c2-4d5e-8508-dccdb51c1853" d="M362.706,109.659c0-.899,.729-1.469,1.909-1.469,.47,0,.899,.1,1.349,.31v-.55c0-.66-.38-1-1.149-1-.42,0-.879,.12-1.459,.39l-.399-.82c.749-.35,1.409-.51,2.078-.51,1.3,0,2.049,.66,2.049,1.819v3.268h-1.119v-.51c-.449,.41-.919,.59-1.489,.59-1.049,0-1.769-.62-1.769-1.52Zm2.079,.73c.449,0,.839-.13,1.179-.41v-.82c-.359-.17-.72-.24-1.159-.24-.64,0-1.039,.28-1.039,.72,0,.459,.399,.75,1.02,.75Z"/>
    <path class="uuid-cdbe2b9c-18c2-4d5e-8508-dccdb51c1853" d="M369.635,111.128l-1.889-5.037h1.259l1.27,3.718,1.399-3.718h1.229l-2.379,5.827c-.38,.959-.85,1.319-1.779,1.319-.17,0-.369-.02-.569-.07v-.969c.27,.03,.34,.04,.439,.04,.4,0,.649-.18,.81-.58l.21-.53Z"/>
    <path class="uuid-cdbe2b9c-18c2-4d5e-8508-dccdb51c1853" d="M373.806,109.759c.649,.41,1.099,.57,1.608,.57,.6,0,1.01-.27,1.01-.67,0-.31-.21-.479-.689-.569l-.89-.15c-.97-.18-1.449-.63-1.449-1.379,0-.939,.77-1.549,1.938-1.549,.7,0,1.33,.19,1.97,.6l-.53,.739c-.52-.33-.999-.479-1.509-.479-.52,0-.859,.22-.859,.589,0,.32,.18,.46,.709,.55l.88,.16c.999,.19,1.479,.649,1.479,1.399,0,.919-.88,1.629-2.039,1.629-.87,0-1.629-.24-2.159-.68l.53-.76Z"/>
    <path class="uuid-cdbe2b9c-18c2-4d5e-8508-dccdb51c1853" d="M346.56,115.993l.6,.719c-1.29,.82-1.999,2.219-1.999,3.938,0,1.729,.709,3.118,1.999,3.938l-.6,.729c-1.569-.969-2.419-2.619-2.419-4.667s.85-3.698,2.419-4.657Z"/>
    <path class="uuid-cdbe2b9c-18c2-4d5e-8508-dccdb51c1853" d="M351.639,119.791v.949h-3.479v-.949h3.479Z"/>
    <path class="uuid-cdbe2b9c-18c2-4d5e-8508-dccdb51c1853" d="M354.109,123.099l-1.529-6.996h1.22l1.039,5.127,1.5-5.127h1.139l1.499,5.127,1.04-5.127h1.179l-1.528,6.996h-1.25l-1.529-5.307-1.528,5.307h-1.25Z"/>
    <path class="uuid-cdbe2b9c-18c2-4d5e-8508-dccdb51c1853" d="M362.6,125.317l-.6-.72c1.29-.819,1.999-2.219,1.999-3.938,0-1.729-.709-3.119-1.999-3.938l.6-.729c1.569,.969,2.419,2.619,2.419,4.667s-.85,3.698-2.419,4.657Z"/>
  </g>
  <g>
    <path class="uuid-cdbe2b9c-18c2-4d5e-8508-dccdb51c1853" d="M442.771,85.884c0-.38,.32-.7,.7-.7,.39,0,.709,.32,.709,.7,0,.39-.31,.689-.709,.689-.39,0-.7-.3-.7-.689Zm1.27,6.716h-1.129v-5.007h1.129v5.007Z"/>
    <path class="uuid-cdbe2b9c-18c2-4d5e-8508-dccdb51c1853" d="M445.431,87.593h1.13v.82c.38-.59,.919-.9,1.589-.9,1.02,0,1.729,.74,1.729,1.789v3.298h-1.129v-2.979c0-.729-.43-1.199-1.1-1.199-.449,0-.819,.21-1.089,.6v3.578h-1.13v-5.007Z"/>
    <path class="uuid-cdbe2b9c-18c2-4d5e-8508-dccdb51c1853" d="M451.001,91.161c0-.899,.729-1.469,1.909-1.469,.47,0,.899,.1,1.349,.31v-.55c0-.66-.38-1-1.149-1-.42,0-.879,.12-1.459,.39l-.399-.82c.749-.35,1.409-.51,2.078-.51,1.3,0,2.049,.66,2.049,1.819v3.268h-1.119v-.51c-.449,.41-.919,.59-1.489,.59-1.049,0-1.769-.62-1.769-1.52Zm2.079,.73c.449,0,.839-.13,1.179-.41v-.82c-.359-.17-.72-.24-1.159-.24-.64,0-1.039,.28-1.039,.72,0,.459,.399,.75,1.02,.75Z"/>
    <path class="uuid-cdbe2b9c-18c2-4d5e-8508-dccdb51c1853" d="M460.329,91.151l.679,.68c-.47,.54-1.188,.87-1.958,.87-1.42,0-2.529-1.14-2.529-2.599,0-1.449,1.1-2.579,2.529-2.579,.779,0,1.499,.3,1.998,.839l-.699,.729c-.35-.39-.779-.589-1.26-.589-.809,0-1.438,.7-1.438,1.599,0,.909,.63,1.599,1.469,1.599,.479,0,.91-.19,1.21-.55Z"/>
    <path class="uuid-cdbe2b9c-18c2-4d5e-8508-dccdb51c1853" d="M462.7,88.492h-1.01v-.899h1.01v-1.379l1.129-.24v1.619h1.399v.899h-1.399v2.539c0,.49,.19,.68,.7,.68,.229,0,.379-.03,.68-.12v.949c-.29,.09-.67,.14-.97,.14-1.01,0-1.539-.48-1.539-1.399v-2.789Z"/>
    <path class="uuid-cdbe2b9c-18c2-4d5e-8508-dccdb51c1853" d="M466.08,85.884c0-.38,.32-.7,.7-.7,.39,0,.709,.32,.709,.7,0,.39-.31,.689-.709,.689-.39,0-.7-.3-.7-.689Zm1.27,6.716h-1.129v-5.007h1.129v5.007Z"/>
    <path class="uuid-cdbe2b9c-18c2-4d5e-8508-dccdb51c1853" d="M468.15,87.593h1.229l1.39,3.658,1.389-3.658h1.189l-2.059,5.007h-1.09l-2.049-5.007Z"/>
    <path class="uuid-cdbe2b9c-18c2-4d5e-8508-dccdb51c1853" d="M476.329,92.7c-1.429,0-2.549-1.14-2.549-2.599,0-1.469,1.05-2.589,2.438-2.589,1.37,0,2.369,1.089,2.369,2.579v.28h-3.698c.11,.79,.729,1.37,1.499,1.37,.47,0,.91-.17,1.189-.47l.74,.689c-.61,.51-1.21,.74-1.989,.74Zm-1.419-3.019h2.608c-.13-.74-.64-1.249-1.31-1.249s-1.169,.49-1.299,1.249Z"/>
    <path class="uuid-cdbe2b9c-18c2-4d5e-8508-dccdb51c1853" d="M485.568,91.931c-.351,.45-.91,.719-1.54,.719-1.269,0-2.269-1.129-2.269-2.548,0-1.429,1.029-2.549,2.339-2.549,.58,0,1.09,.24,1.459,.66v-2.758l1.13-.19v7.336h-1.119v-.669Zm-1.2-.23c.48,0,.89-.19,1.189-.55v-2.109c-.289-.34-.72-.54-1.189-.54-.859,0-1.488,.68-1.488,1.599,0,.909,.64,1.599,1.488,1.599Z"/>
    <path class="uuid-cdbe2b9c-18c2-4d5e-8508-dccdb51c1853" d="M487.84,91.161c0-.899,.729-1.469,1.909-1.469,.47,0,.899,.1,1.35,.31v-.55c0-.66-.38-1-1.149-1-.42,0-.88,.12-1.459,.39l-.4-.82c.75-.35,1.409-.51,2.079-.51,1.299,0,2.049,.66,2.049,1.819v3.268h-1.119v-.51c-.45,.41-.92,.59-1.489,.59-1.05,0-1.77-.62-1.77-1.52Zm2.079,.73c.45,0,.84-.13,1.18-.41v-.82c-.36-.17-.72-.24-1.159-.24-.64,0-1.04,.28-1.04,.72,0,.459,.4,.75,1.02,.75Z"/>
    <path class="uuid-cdbe2b9c-18c2-4d5e-8508-dccdb51c1853" d="M494.77,92.63l-1.89-5.037h1.26l1.27,3.718,1.398-3.718h1.229l-2.378,5.827c-.38,.959-.85,1.319-1.779,1.319-.17,0-.37-.02-.57-.07v-.969c.271,.03,.34,.04,.44,.04,.399,0,.649-.18,.81-.58l.21-.53Z"/>
    <path class="uuid-cdbe2b9c-18c2-4d5e-8508-dccdb51c1853" d="M498.939,91.261c.649,.41,1.1,.57,1.609,.57,.6,0,1.009-.27,1.009-.67,0-.31-.209-.479-.689-.569l-.89-.15c-.969-.18-1.449-.63-1.449-1.379,0-.939,.77-1.549,1.939-1.549,.699,0,1.329,.19,1.969,.6l-.529,.739c-.521-.33-1-.479-1.51-.479-.52,0-.859,.22-.859,.589,0,.32,.18,.46,.71,.55l.879,.16c1,.19,1.479,.649,1.479,1.399,0,.919-.88,1.629-2.039,1.629-.869,0-1.629-.24-2.158-.68l.529-.76Z"/>
    <path class="uuid-cdbe2b9c-18c2-4d5e-8508-dccdb51c1853" d="M467.854,97.494l.6,.719c-1.29,.82-1.999,2.219-1.999,3.938,0,1.729,.709,3.118,1.999,3.938l-.6,.729c-1.569-.969-2.419-2.619-2.419-4.667s.85-3.698,2.419-4.657Z"/>
    <path class="uuid-cdbe2b9c-18c2-4d5e-8508-dccdb51c1853" d="M472.934,101.292v.949h-3.479v-.949h3.479Z"/>
    <path class="uuid-cdbe2b9c-18c2-4d5e-8508-dccdb51c1853" d="M474.285,97.604h1.199v6.996h-1.199v-6.996Z"/>
    <path class="uuid-cdbe2b9c-18c2-4d5e-8508-dccdb51c1853" d="M477.305,106.819l-.6-.72c1.29-.819,1.999-2.219,1.999-3.938,0-1.729-.709-3.119-1.999-3.938l.6-.729c1.569,.969,2.419,2.619,2.419,4.667s-.85,3.698-2.419,4.657Z"/>
  </g>
</svg>