<?xml version="1.0" encoding="UTF-8" standalone="no"?>
<svg
   xmlns:dc="http://purl.org/dc/elements/1.1/"
   xmlns:cc="http://creativecommons.org/ns#"
   xmlns:rdf="http://www.w3.org/1999/02/22-rdf-syntax-ns#"
   xmlns:svg="http://www.w3.org/2000/svg"
   xmlns="http://www.w3.org/2000/svg"
   xmlns:sodipodi="http://sodipodi.sourceforge.net/DTD/sodipodi-0.dtd"
   xmlns:inkscape="http://www.inkscape.org/namespaces/inkscape"
   inkscape:version="1.0 (4035a4f, 2020-05-01)"
   sodipodi:docname="Figure4.1_selinux_context.svg"
   version="1.1"
   viewBox="0 0 561.448 66.486"
   height="23.455mm"
   width="198.066mm"
   data-name="Layer 1"
   id="Layer_1">
  <metadata
     id="metadata243">
    <rdf:RDF>
      <cc:Work
         rdf:about="">
        <dc:format>image/svg+xml</dc:format>
        <dc:type
           rdf:resource="http://purl.org/dc/dcmitype/StillImage" />
        <dc:title></dc:title>
        <dc:subject>
          <rdf:Bag>
            <rdf:li>SE Linux</rdf:li>
            <rdf:li>Classroom Architecture</rdf:li>
            <rdf:li>Nice level to priority</rdf:li>
          </rdf:Bag>
        </dc:subject>
      </cc:Work>
    </rdf:RDF>
  </metadata>
  <sodipodi:namedview
     inkscape:current-layer="Layer_1"
     inkscape:window-maximized="0"
     inkscape:window-y="25"
     inkscape:window-x="0"
     inkscape:cy="44.324409"
     inkscape:cx="374.29794"
     inkscape:zoom="1.4654101"
     showgrid="false"
     id="namedview241"
     inkscape:window-height="480"
     inkscape:window-width="709"
     inkscape:pageshadow="2"
     inkscape:pageopacity="0"
     guidetolerance="10"
     gridtolerance="10"
     objecttolerance="10"
     borderopacity="1"
     bordercolor="#666666"
     pagecolor="#ffffff" />
  <defs
     id="defs12">
    <style
       id="style10">
      .cls-1 {
        fill: #f0f0f0;
      }

      .cls-2 {
        fill: #161616;
      }

      .cls-3 {
        fill: none;
        stroke: #161616;
        stroke-miterlimit: 10;
        stroke-width: 0.5px;
      }

      .cls-4 {
        fill: #d9e8f7;
      }
    </style>
  </defs>
  <rect
     id="rect14"
     height="66.486"
     width="561.448"
     class="cls-1" />
  <g
     id="g42">
    <g
       id="g38">
      <path
         id="path16"
         transform="translate(-16.056 -13.563)"
         d="M56.984,35.837l.51-.52a3.266,3.266,0,0,0,2.4,1.289c1.05,0,1.83-.609,1.83-1.438,0-.58-.361-.89-1.35-1.17l-1.069-.27c-1.04-.269-1.57-.849-1.57-1.689,0-1.19.959-1.979,2.409-1.979a3.98,3.98,0,0,1,2.789,1.1l-.481.549a3.355,3.355,0,0,0-2.338-1c-.99,0-1.638.49-1.638,1.229,0,.57.359.919,1.138,1.129l1.049.26c1.26.351,1.81.87,1.81,1.729,0,1.3-1.06,2.189-2.6,2.189A3.743,3.743,0,0,1,56.984,35.837Z"
         class="cls-2" />
      <path
         id="path18"
         transform="translate(-16.056 -13.563)"
         d="M64.764,30.15h4.678l-.151.67H65.373l-.529,2.458h2.728l-.139.67H64.7l-.54,2.528h3.969l-.141.67H63.276Z"
         class="cls-2" />
      <path
         id="path20"
         transform="translate(-16.056 -13.563)"
         d="M70.834,30.15h.75l-1.35,6.317H74.1l-.14.679H69.345Z"
         class="cls-2" />
      <path
         id="path22"
         transform="translate(-16.056 -13.563)"
         d="M76.234,32.269h.709l-1.058,4.877h-.721Zm.15-1.67a.6.6,0,0,1,.569-.579.461.461,0,0,1,.46.47.585.585,0,0,1-.569.58A.449.449,0,0,1,76.384,30.6Z"
         class="cls-2" />
      <path
         id="path24"
         transform="translate(-16.056 -13.563)"
         d="M78.434,32.269h.71l-.15.709a1.947,1.947,0,0,1,1.53-.779,1.448,1.448,0,0,1,1.449,1.949l-.641,3h-.719l.62-2.848c.2-.9-.21-1.5-1.02-1.5a1.731,1.731,0,0,0-1.329.679l-.8,3.668h-.719Z"
         class="cls-2" />
      <path
         id="path26"
         transform="translate(-16.056 -13.563)"
         d="M83.154,35.258l.651-2.989h.719L83.9,35.117c-.2.9.218,1.5,1.019,1.5a1.7,1.7,0,0,0,1.328-.68l.8-3.668h.719L86.7,37.146h-.72l.15-.7a1.978,1.978,0,0,1-1.529.77A1.463,1.463,0,0,1,83.154,35.258Z"
         class="cls-2" />
      <path
         id="path28"
         transform="translate(-16.056 -13.563)"
         d="M89.984,34.578l-1.21-2.309h.8l.919,1.839,1.7-1.839h.86l-2.278,2.389,1.3,2.488h-.789l-1.009-1.989-1.84,1.989h-.879Z"
         class="cls-2" />
      <path
         id="path30"
         transform="translate(-16.056 -13.563)"
         d="M95.934,34.118l.84-3.968h.759l-.859,4.008c-.3,1.409.389,2.4,1.658,2.4,1.14,0,2-.869,2.319-2.338l.87-4.068h.749l-.879,4.108c-.41,1.929-1.51,3-3.088,3C96.514,37.257,95.533,35.957,95.934,34.118Z"
         class="cls-2" />
      <path
         id="path32"
         transform="translate(-16.056 -13.563)"
         d="M102.094,36.387l.439-.46a2.088,2.088,0,0,0,1.58.73,1.046,1.046,0,0,0,1.159-.9c0-.34-.2-.53-.739-.69l-.769-.2c-.77-.221-1.13-.62-1.13-1.25a1.522,1.522,0,0,1,1.719-1.438,2.884,2.884,0,0,1,1.909.739l-.44.489a2.477,2.477,0,0,0-1.509-.629c-.62,0-1.03.31-1.03.77,0,.359.19.559.7.7l.78.22c.839.24,1.188.589,1.188,1.2a1.688,1.688,0,0,1-1.847,1.579A2.683,2.683,0,0,1,102.094,36.387Z"
         class="cls-2" />
      <path
         id="path34"
         transform="translate(-16.056 -13.563)"
         d="M107,34.987a2.666,2.666,0,0,1,2.509-2.8,1.988,1.988,0,0,1,1.958,2.149,5.114,5.114,0,0,1-.029.53H107.7a1.582,1.582,0,0,0,1.549,1.738,2.125,2.125,0,0,0,1.29-.429l.38.519a2.922,2.922,0,0,1-1.7.54A2.133,2.133,0,0,1,107,34.987Zm3.788-.639a1.391,1.391,0,0,0-1.329-1.519,1.822,1.822,0,0,0-1.689,1.519Z"
         class="cls-2" />
      <path
         id="path36"
         transform="translate(-16.056 -13.563)"
         d="M113.2,32.269h.72l-.2.889a1.735,1.735,0,0,1,1.469-.978,1.492,1.492,0,0,1,.509.089l-.149.66a1.236,1.236,0,0,0-.55-.11,1.682,1.682,0,0,0-1.4.909l-.75,3.418h-.72Z"
         class="cls-2" />
    </g>
    <path
       id="path40"
       transform="translate(-16.056 -13.563)"
       d="M82.434,45.45,85.2,40.128,82.434,45.45l-2.769,5.322Z"
       class="cls-3" />
  </g>
  <g
     id="g56">
    <g
       id="g52">
      <path
         id="path44"
         transform="translate(-16.056 -13.563)"
         d="M170.776,30.15H173.4a1.734,1.734,0,0,1,1.939,1.769,2.2,2.2,0,0,1-1.89,2.189l.91,3.038h-.789l-.88-2.988h-2.018l-.641,2.988h-.749Zm2.138,3.368a1.554,1.554,0,0,0,1.68-1.548,1.14,1.14,0,0,0-1.3-1.14h-1.909l-.58,2.688Z"
         class="cls-2" />
      <path
         id="path46"
         transform="translate(-16.056 -13.563)"
         d="M175.8,34.968a2.684,2.684,0,0,1,2.559-2.788,2.1,2.1,0,0,1,2.108,2.278,2.7,2.7,0,0,1-2.568,2.788A2.115,2.115,0,0,1,175.8,34.968Zm3.948-.51a1.463,1.463,0,0,0-1.42-1.639,2,2,0,0,0-1.818,2.139,1.47,1.47,0,0,0,1.429,1.639A1.983,1.983,0,0,0,179.744,34.458Z"
         class="cls-2" />
      <path
         id="path48"
         transform="translate(-16.056 -13.563)"
         d="M182.705,29.931l.74-.151-1.529,7.366h-.72Z"
         class="cls-2" />
      <path
         id="path50"
         transform="translate(-16.056 -13.563)"
         d="M183.7,34.987a2.667,2.667,0,0,1,2.51-2.8,1.988,1.988,0,0,1,1.958,2.149,4.858,4.858,0,0,1-.03.53H184.4a1.582,1.582,0,0,0,1.548,1.738,2.125,2.125,0,0,0,1.29-.429l.379.519a2.918,2.918,0,0,1-1.7.54A2.134,2.134,0,0,1,183.7,34.987Zm3.789-.639a1.392,1.392,0,0,0-1.33-1.519,1.826,1.826,0,0,0-1.689,1.519Z"
         class="cls-2" />
    </g>
    <path
       id="path54"
       transform="translate(-16.056 -13.563)"
       d="M174.56,45.45l2.769-5.322L174.56,45.45l-2.769,5.322Z"
       class="cls-3" />
  </g>
  <g
     id="g70">
    <g
       id="g66">
      <path
         id="path58"
         transform="translate(-16.056 -13.563)"
         d="M292.52,30.83h-2.379l.15-.68h5.477l-.15.68h-2.349l-1.349,6.316h-.75Z"
         class="cls-2" />
      <path
         id="path60"
         transform="translate(-16.056 -13.563)"
         d="M294.671,39.235l.13-.649a2.079,2.079,0,0,0,.41.059.962.962,0,0,0,.9-.569l.52-.88-.839-4.927h.76l.629,4.037,2.379-4.037h.809l-3.6,6.046a1.69,1.69,0,0,1-1.55,1.02A1.913,1.913,0,0,1,294.671,39.235Z"
         class="cls-2" />
      <path
         id="path62"
         transform="translate(-16.056 -13.563)"
         d="M301.28,32.269h.7l-.111.52a1.968,1.968,0,0,1,1.379-.56,2.034,2.034,0,0,1,1.949,2.208,2.679,2.679,0,0,1-2.528,2.789,1.77,1.77,0,0,1-1.56-.819l-.609,2.828h-.72Zm.481,1.079-.53,2.469a1.545,1.545,0,0,0,1.349.77,1.985,1.985,0,0,0,1.908-2.089,1.5,1.5,0,0,0-1.5-1.65A1.816,1.816,0,0,0,301.761,33.348Z"
         class="cls-2" />
      <path
         id="path64"
         transform="translate(-16.056 -13.563)"
         d="M306.221,34.987a2.666,2.666,0,0,1,2.509-2.8,1.988,1.988,0,0,1,1.959,2.149,4.626,4.626,0,0,1-.031.53h-3.737a1.581,1.581,0,0,0,1.549,1.738,2.125,2.125,0,0,0,1.289-.429l.38.519a2.922,2.922,0,0,1-1.7.54A2.133,2.133,0,0,1,306.221,34.987Zm3.788-.639a1.392,1.392,0,0,0-1.329-1.519,1.825,1.825,0,0,0-1.69,1.519Z"
         class="cls-2" />
    </g>
    <path
       id="path68"
       transform="translate(-16.056 -13.563)"
       d="M296.45,45.45l2.769-5.322L296.45,45.45l-2.769,5.322Z"
       class="cls-3" />
  </g>
  <g
     id="g86">
    <g
       id="g82">
      <path
         id="path72"
         transform="translate(-16.056 -13.563)"
         d="M387.188,30.15h.749l-1.349,6.317h3.867l-.139.679H385.7Z"
         class="cls-2" />
      <path
         id="path74"
         transform="translate(-16.056 -13.563)"
         d="M391.818,34.987a2.666,2.666,0,0,1,2.508-2.8,1.988,1.988,0,0,1,1.959,2.149,4.62,4.62,0,0,1-.03.53h-3.737a1.581,1.581,0,0,0,1.549,1.738,2.127,2.127,0,0,0,1.289-.429l.379.519a2.918,2.918,0,0,1-1.7.54A2.133,2.133,0,0,1,391.818,34.987Zm3.788-.639a1.393,1.393,0,0,0-1.33-1.519,1.825,1.825,0,0,0-1.689,1.519Z"
         class="cls-2" />
      <path
         id="path76"
         transform="translate(-16.056 -13.563)"
         d="M397.438,32.269h.75l.669,3.968,2.378-3.968h.8L399,37.146h-.679Z"
         class="cls-2" />
      <path
         id="path78"
         transform="translate(-16.056 -13.563)"
         d="M402.178,34.987a2.666,2.666,0,0,1,2.509-2.8,1.988,1.988,0,0,1,1.959,2.149,4.626,4.626,0,0,1-.031.53h-3.737a1.581,1.581,0,0,0,1.549,1.738,2.125,2.125,0,0,0,1.289-.429l.38.519a2.922,2.922,0,0,1-1.7.54A2.133,2.133,0,0,1,402.178,34.987Zm3.788-.639a1.392,1.392,0,0,0-1.329-1.519,1.825,1.825,0,0,0-1.69,1.519Z"
         class="cls-2" />
      <path
         id="path80"
         transform="translate(-16.056 -13.563)"
         d="M408.837,29.931l.739-.151-1.528,7.366h-.72Z"
         class="cls-2" />
    </g>
    <path
       id="path84"
       transform="translate(-16.056 -13.563)"
       d="M393.111,45.45l2.769-5.322-2.769,5.322-2.769,5.322Z"
       class="cls-3" />
  </g>
  <g
     id="g100">
    <g
       id="g96">
      <path
         id="path88"
         transform="translate(-16.056 -13.563)"
         d="M484.227,30.15H488.9l-.15.67h-3.918l-.539,2.508h2.688l-.139.67h-2.69l-.669,3.148h-.75Z"
         class="cls-2" />
      <path
         id="path90"
         transform="translate(-16.056 -13.563)"
         d="M489.657,32.269h.709l-1.058,4.877h-.72Zm.15-1.67a.6.6,0,0,1,.57-.579.46.46,0,0,1,.459.47.585.585,0,0,1-.569.58A.449.449,0,0,1,489.807,30.6Z"
         class="cls-2" />
      <path
         id="path92"
         transform="translate(-16.056 -13.563)"
         d="M492.3,29.931l.739-.151-1.529,7.366h-.72Z"
         class="cls-2" />
      <path
         id="path94"
         transform="translate(-16.056 -13.563)"
         d="M493.287,34.987a2.666,2.666,0,0,1,2.509-2.8,1.988,1.988,0,0,1,1.959,2.149,4.858,4.858,0,0,1-.03.53h-3.738a1.581,1.581,0,0,0,1.549,1.738,2.125,2.125,0,0,0,1.289-.429l.38.519a2.918,2.918,0,0,1-1.7.54A2.133,2.133,0,0,1,493.287,34.987Zm3.788-.639a1.391,1.391,0,0,0-1.329-1.519,1.824,1.824,0,0,0-1.689,1.519Z"
         class="cls-2" />
    </g>
    <path
       id="path98"
       transform="translate(-16.056 -13.563)"
       d="M484.67,45.45l2.769-5.322L484.67,45.45,481.9,50.772Z"
       class="cls-3" />
  </g>
  <rect
     id="rect102"
     height="19.843"
     width="18.078"
     y="33.933"
     x="366.801"
     class="cls-4" />
  <rect
     id="rect104"
     height="19.843"
     width="159.635"
     y="33.933"
     x="387.33"
     class="cls-4" />
  <rect
     id="rect106"
     height="19.843"
     width="161.139"
     y="33.933"
     x="198.923"
     class="cls-4" />
  <rect
     id="rect108"
     height="19.843"
     width="69.25"
     y="33.933"
     x="122.921"
     class="cls-4" />
  <rect
     id="rect110"
     height="19.843"
     width="102.377"
     y="33.933"
     x="14.173"
     class="cls-4" />
  <g
     id="g238">
    <path
       id="path112"
       transform="translate(-16.056 -13.563)"
       d="M32.016,59.444V55.2h1.4v4.064c0,1.183.4,1.747,1.425,1.747a2.407,2.407,0,0,0,1.916-1.129V55.2h1.4v6.845H36.995l-.11-1.141h-.057a3.227,3.227,0,0,1-2.485,1.309C32.739,62.211,32.016,61.227,32.016,59.444Z"
       class="cls-2" />
    <path
       id="path114"
       transform="translate(-16.056 -13.563)"
       d="M40.619,55.2H41.76l.111,1.092h.056a3.481,3.481,0,0,1,2.521-1.26c1.6,0,2.33.985,2.33,2.767v4.246H45.383V57.979c0-1.194-.4-1.747-1.416-1.747a2.658,2.658,0,0,0-1.953,1.091v4.72h-1.4Z"
       class="cls-2" />
    <path
       id="path116"
       transform="translate(-16.056 -13.563)"
       d="M48.865,58.632a3.578,3.578,0,0,1,3.854-3.6,3.537,3.537,0,0,1,2.511.982l-.671.88a2.743,2.743,0,0,0-1.78-.714,2.342,2.342,0,0,0-2.485,2.454,2.313,2.313,0,0,0,2.446,2.432,3.222,3.222,0,0,0,2.032-.8l.6.9a4.172,4.172,0,0,1-2.742,1.054A3.466,3.466,0,0,1,48.865,58.632Z"
       class="cls-2" />
    <path
       id="path118"
       transform="translate(-16.056 -13.563)"
       d="M56.985,58.632a3.413,3.413,0,1,1,3.409,3.579A3.375,3.375,0,0,1,56.985,58.632Zm5.389,0c0-1.475-.768-2.454-1.98-2.454s-1.98.979-1.98,2.454.769,2.432,1.98,2.432S62.374,60.1,62.374,58.632Z"
       class="cls-2" />
    <path
       id="path120"
       transform="translate(-16.056 -13.563)"
       d="M65.818,55.2h1.141l.111,1.092h.056a3.483,3.483,0,0,1,2.522-1.26c1.6,0,2.33.985,2.33,2.767v4.246h-1.4V57.979c0-1.194-.4-1.747-1.416-1.747a2.657,2.657,0,0,0-1.952,1.091v4.72h-1.4Z"
       class="cls-2" />
    <path
       id="path122"
       transform="translate(-16.056 -13.563)"
       d="M74.359,55.271l1.957-.073h4.071v1.114H74.359Zm1.917-.545a2.55,2.55,0,0,1,2.84-2.783,5.4,5.4,0,0,1,2,.387l-.3,1.036a3.75,3.75,0,0,0-1.549-.31,1.432,1.432,0,0,0-1.6,1.636v7.351H76.276Z"
       class="cls-2" />
    <path
       id="path124"
       transform="translate(-16.056 -13.563)"
       d="M85.67,56.312H82.61V55.2h4.456v6.845h-1.4Zm-.454-3.444a1.04,1.04,0,0,1,2.079,0,1.041,1.041,0,0,1-2.079,0Z"
       class="cls-2" />
    <path
       id="path126"
       transform="translate(-16.056 -13.563)"
       d="M91.019,55.2h1.14l.112,1.092h.055a3.483,3.483,0,0,1,2.522-1.26c1.6,0,2.33.985,2.33,2.767v4.246h-1.4V57.979c0-1.194-.4-1.747-1.416-1.747a2.658,2.658,0,0,0-1.953,1.091v4.72H91.019Z"
       class="cls-2" />
    <path
       id="path128"
       transform="translate(-16.056 -13.563)"
       d="M99.1,58.609a3.456,3.456,0,0,1,3.511-3.579,2.969,2.969,0,0,1,3.151,3.231,4.909,4.909,0,0,1-.064.757h-5.631V58h4.762l-.3.34c0-1.483-.717-2.226-1.877-2.226a2.222,2.222,0,0,0-2.181,2.5,2.312,2.312,0,0,0,2.525,2.51,3.721,3.721,0,0,0,2-.6l.488.882a4.834,4.834,0,0,1-2.664.813A3.475,3.475,0,0,1,99.1,58.609Z"
       class="cls-2" />
    <path
       id="path130"
       transform="translate(-16.056 -13.563)"
       d="M107.384,58.632c0-2.229,1.469-3.6,3.053-3.6a2.76,2.76,0,0,1,1.969.837h.034l-.067-1.2V52.111h1.4v9.932h-1.141l-.111-.85h-.045a3.169,3.169,0,0,1-2.149,1.018C108.556,62.211,107.384,60.9,107.384,58.632Zm4.989,1.5V56.894a2.3,2.3,0,0,0-1.619-.7c-1.067,0-1.941.927-1.941,2.421,0,1.558.691,2.433,1.833,2.433A2.271,2.271,0,0,0,112.373,60.133Z"
       class="cls-2" />
    <path
       id="path132"
       transform="translate(-16.056 -13.563)"
       d="M115.831,62.954h6.724v1.139h-6.724Z"
       class="cls-2" />
    <path
       id="path134"
       transform="translate(-16.056 -13.563)"
       d="M124.414,59.444V55.2h1.4v4.064c0,1.183.395,1.747,1.424,1.747a2.408,2.408,0,0,0,1.917-1.129V55.2h1.395v6.845h-1.152l-.111-1.141h-.056a3.228,3.228,0,0,1-2.486,1.309C125.138,62.211,124.414,61.227,124.414,59.444Z"
       class="cls-2" />
    <path
       id="path136"
       transform="translate(-16.056 -13.563)"
       d="M134.73,56.014a1.263,1.263,0,1,1,1.262,1.308A1.254,1.254,0,0,1,134.73,56.014Zm0,4.888a1.263,1.263,0,1,1,1.262,1.309A1.253,1.253,0,0,1,134.73,60.9Z"
       class="cls-2" />
    <path
       id="path138"
       transform="translate(-16.056 -13.563)"
       d="M140.984,58.632a3.413,3.413,0,1,1,3.409,3.579A3.375,3.375,0,0,1,140.984,58.632Zm5.389,0c0-1.475-.769-2.454-1.98-2.454s-1.981.979-1.981,2.454.77,2.432,1.981,2.432S146.373,60.1,146.373,58.632Z"
       class="cls-2" />
    <path
       id="path140"
       transform="translate(-16.056 -13.563)"
       d="M151.092,61.286h-.045l-.128.757h-1.1V52.111h1.394v2.634L151.151,56h.044a3.208,3.208,0,0,1,2.185-.974c1.809,0,2.821,1.367,2.821,3.476,0,2.343-1.457,3.7-3.051,3.7A3.16,3.16,0,0,1,151.092,61.286Zm3.681-2.761c0-1.433-.521-2.331-1.754-2.331a2.589,2.589,0,0,0-1.807.914v3.239a2.579,2.579,0,0,0,1.671.7C153.949,61.048,154.773,60.143,154.773,58.525Z"
       class="cls-2" />
    <path
       id="path142"
       transform="translate(-16.056 -13.563)"
       d="M157.713,64.542l.437-1.026a3.567,3.567,0,0,0,1.517.366c1.254,0,1.6-.626,1.6-1.739V56.312h-3.06V55.2h4.455v6.861c0,1.675-.671,2.948-2.954,2.948A4.652,4.652,0,0,1,157.713,64.542Zm3.1-11.674a1.04,1.04,0,0,1,2.079,0,1.041,1.041,0,0,1-2.079,0Z"
       class="cls-2" />
    <path
       id="path144"
       transform="translate(-16.056 -13.563)"
       d="M166.3,58.609a3.456,3.456,0,0,1,3.511-3.579,2.969,2.969,0,0,1,3.151,3.231,5.057,5.057,0,0,1-.063.757h-5.632V58h4.763l-.3.34c0-1.483-.717-2.226-1.877-2.226a2.223,2.223,0,0,0-2.181,2.5,2.312,2.312,0,0,0,2.526,2.51,3.726,3.726,0,0,0,2-.6l.487.882a4.831,4.831,0,0,1-2.664.813A3.475,3.475,0,0,1,166.3,58.609Z"
       class="cls-2" />
    <path
       id="path146"
       transform="translate(-16.056 -13.563)"
       d="M174.863,58.632a3.578,3.578,0,0,1,3.854-3.6,3.537,3.537,0,0,1,2.511.982l-.671.88a2.741,2.741,0,0,0-1.78-.714,2.342,2.342,0,0,0-2.485,2.454,2.313,2.313,0,0,0,2.446,2.432,3.222,3.222,0,0,0,2.032-.8l.6.9a4.172,4.172,0,0,1-2.742,1.054A3.466,3.466,0,0,1,174.863,58.632Z"
       class="cls-2" />
    <path
       id="path148"
       transform="translate(-16.056 -13.563)"
       d="M184.96,59.335V56.312h-1.886V55.271l1.942-.073.182-2.169h1.158V55.2h3.229v1.114h-3.229v3.027c0,1.176.417,1.747,1.655,1.747a4.386,4.386,0,0,0,1.559-.292l.284,1.018a6.311,6.311,0,0,1-2.166.4C185.642,62.211,184.96,61.053,184.96,59.335Z"
       class="cls-2" />
    <path
       id="path150"
       transform="translate(-16.056 -13.563)"
       d="M191.43,62.954h6.723v1.139H191.43Z"
       class="cls-2" />
    <path
       id="path152"
       transform="translate(-16.056 -13.563)"
       d="M200.913,55.2h1.155l.125,1.588h.034a3.5,3.5,0,0,1,2.982-1.756,2.869,2.869,0,0,1,1.342.28l-.306,1.186a3.475,3.475,0,0,0-1.253-.219,3.033,3.033,0,0,0-2.683,1.882v3.884h-1.4Z"
       class="cls-2" />
    <path
       id="path154"
       transform="translate(-16.056 -13.563)"
       d="M210.329,56.014a1.264,1.264,0,1,1,1.263,1.308A1.254,1.254,0,0,1,210.329,56.014Zm0,4.888a1.264,1.264,0,1,1,1.263,1.309A1.253,1.253,0,0,1,210.329,60.9Z"
       class="cls-2" />
    <path
       id="path156"
       transform="translate(-16.056 -13.563)"
       d="M217.017,52.111h1.394v2.634l-.083,1.54h.045a3.337,3.337,0,0,1,2.476-1.255c1.6,0,2.327.985,2.327,2.767v4.246h-1.4V57.979c0-1.194-.4-1.747-1.416-1.747a2.658,2.658,0,0,0-1.953,1.091v4.72h-1.394Z"
       class="cls-2" />
    <path
       id="path158"
       transform="translate(-16.056 -13.563)"
       d="M226.96,59.335V56.312h-1.887V55.271l1.942-.073.182-2.169h1.159V55.2h3.228v1.114h-3.228v3.027c0,1.176.416,1.747,1.654,1.747a4.382,4.382,0,0,0,1.559-.292l.284,1.018a6.31,6.31,0,0,1-2.165.4C227.641,62.211,226.96,61.053,226.96,59.335Z"
       class="cls-2" />
    <path
       id="path160"
       transform="translate(-16.056 -13.563)"
       d="M235.359,59.335V56.312h-1.885V55.271l1.941-.073.183-2.169h1.157V55.2h3.229v1.114h-3.229v3.027c0,1.176.417,1.747,1.655,1.747a4.391,4.391,0,0,0,1.56-.292l.283,1.018a6.306,6.306,0,0,1-2.166.4C236.041,62.211,235.359,61.053,235.359,59.335Z"
       class="cls-2" />
    <path
       id="path162"
       transform="translate(-16.056 -13.563)"
       d="M242.216,55.2h1.141l.111.827h.044a3.5,3.5,0,0,1,2.28-.995c1.809,0,2.808,1.367,2.808,3.49,0,2.329-1.457,3.691-3.074,3.691a3.031,3.031,0,0,1-1.949-.849h-.033l.066,1.247v2.23h-1.394Zm4.955,3.327c0-1.433-.52-2.331-1.754-2.331a2.593,2.593,0,0,0-1.807.914v3.239a2.575,2.575,0,0,0,1.648.7C246.348,61.048,247.171,60.143,247.171,58.525Z"
       class="cls-2" />
    <path
       id="path164"
       transform="translate(-16.056 -13.563)"
       d="M250.182,58.632c0-2.229,1.469-3.6,3.052-3.6a2.76,2.76,0,0,1,1.97.837h.033l-.066-1.2V52.111h1.4v9.932h-1.141l-.111-.85h-.045a3.169,3.169,0,0,1-2.149,1.018C251.354,62.211,250.182,60.9,250.182,58.632Zm4.989,1.5V56.894a2.3,2.3,0,0,0-1.619-.7c-1.068,0-1.942.927-1.942,2.421,0,1.558.692,2.433,1.833,2.433A2.271,2.271,0,0,0,255.171,60.133Z"
       class="cls-2" />
    <path
       id="path166"
       transform="translate(-16.056 -13.563)"
       d="M258.629,62.954h6.724v1.139h-6.724Z"
       class="cls-2" />
    <path
       id="path168"
       transform="translate(-16.056 -13.563)"
       d="M267.117,61.146l.621-.9a4.969,4.969,0,0,0,2.917.9c1.049,0,1.552-.417,1.552-.932,0-.485-.284-.791-2.008-1.146-1.807-.375-2.656-1-2.656-2.036,0-1.144,1.029-2,2.924-2a5.246,5.246,0,0,1,2.813.89l-.654.87a4.134,4.134,0,0,0-2.281-.7c-1.018,0-1.412.4-1.412.871,0,.536.547.746,1.889,1.032,2.227.488,2.787,1.062,2.787,2.133,0,1.145-1.11,2.086-3.13,2.086A6.107,6.107,0,0,1,267.117,61.146Z"
       class="cls-2" />
    <path
       id="path170"
       transform="translate(-16.056 -13.563)"
       d="M275.526,64.775l.273-1.092a2.094,2.094,0,0,0,.6.1,1.822,1.822,0,0,0,1.757-1.305l.181-.467L275.209,55.2h1.4l1.528,3.556c.262.615.537,1.327.8,2H279c.226-.658.484-1.372.7-2l1.354-3.556h1.335l-2.942,7.279c-.548,1.448-1.375,2.439-2.982,2.439A3.128,3.128,0,0,1,275.526,64.775Z"
       class="cls-2" />
    <path
       id="path172"
       transform="translate(-16.056 -13.563)"
       d="M283.917,61.146l.621-.9a4.969,4.969,0,0,0,2.917.9c1.049,0,1.552-.417,1.552-.932,0-.485-.284-.791-2.008-1.146-1.807-.375-2.656-1-2.656-2.036,0-1.144,1.029-2,2.924-2a5.246,5.246,0,0,1,2.813.89l-.654.87a4.139,4.139,0,0,0-2.281-.7c-1.018,0-1.412.4-1.412.871,0,.536.546.746,1.889,1.032,2.227.488,2.786,1.062,2.786,2.133,0,1.145-1.109,2.086-3.13,2.086A6.106,6.106,0,0,1,283.917,61.146Z"
       class="cls-2" />
    <path
       id="path174"
       transform="translate(-16.056 -13.563)"
       d="M292.229,62.954h6.723v1.139h-6.723Z"
       class="cls-2" />
    <path
       id="path176"
       transform="translate(-16.056 -13.563)"
       d="M300.861,58.632a3.578,3.578,0,0,1,3.854-3.6,3.537,3.537,0,0,1,2.511.982l-.671.88a2.741,2.741,0,0,0-1.779-.714,2.342,2.342,0,0,0-2.486,2.454,2.313,2.313,0,0,0,2.446,2.432,3.222,3.222,0,0,0,2.032-.8l.6.9a4.172,4.172,0,0,1-2.742,1.054A3.466,3.466,0,0,1,300.861,58.632Z"
       class="cls-2" />
    <path
       id="path178"
       transform="translate(-16.056 -13.563)"
       d="M308.982,58.632a3.413,3.413,0,1,1,3.408,3.579A3.375,3.375,0,0,1,308.982,58.632Zm5.388,0c0-1.475-.768-2.454-1.98-2.454s-1.98.979-1.98,2.454.769,2.432,1.98,2.432S314.37,60.1,314.37,58.632Z"
       class="cls-2" />
    <path
       id="path180"
       transform="translate(-16.056 -13.563)"
       d="M317.815,55.2h1.14l.112,1.092h.055a3.483,3.483,0,0,1,2.522-1.26c1.6,0,2.33.985,2.33,2.767v4.246h-1.4V57.979c0-1.194-.4-1.747-1.416-1.747a2.657,2.657,0,0,0-1.952,1.091v4.72h-1.395Z"
       class="cls-2" />
    <path
       id="path182"
       transform="translate(-16.056 -13.563)"
       d="M327.758,59.335V56.312h-1.886V55.271l1.942-.073L328,53.029h1.157V55.2h3.23v1.114h-3.23v3.027c0,1.176.417,1.747,1.656,1.747a4.386,4.386,0,0,0,1.559-.292l.283,1.018a6.3,6.3,0,0,1-2.166.4C328.44,62.211,327.758,61.053,327.758,59.335Z"
       class="cls-2" />
    <path
       id="path184"
       transform="translate(-16.056 -13.563)"
       d="M334.293,58.609A3.455,3.455,0,0,1,337.8,55.03a2.969,2.969,0,0,1,3.151,3.231,5.038,5.038,0,0,1-.064.757H335.26V58h4.762l-.3.34c0-1.483-.718-2.226-1.878-2.226a2.223,2.223,0,0,0-2.181,2.5,2.313,2.313,0,0,0,2.526,2.51,3.721,3.721,0,0,0,2-.6l.488.882a4.837,4.837,0,0,1-2.665.813A3.475,3.475,0,0,1,334.293,58.609Z"
       class="cls-2" />
    <path
       id="path186"
       transform="translate(-16.056 -13.563)"
       d="M343.015,55.2h1.14l.112,1.092h.055a3.483,3.483,0,0,1,2.522-1.26c1.6,0,2.33.985,2.33,2.767v4.246h-1.4V57.979c0-1.194-.4-1.747-1.416-1.747a2.658,2.658,0,0,0-1.953,1.091v4.72h-1.394Z"
       class="cls-2" />
    <path
       id="path188"
       transform="translate(-16.056 -13.563)"
       d="M352.958,59.335V56.312h-1.887V55.271l1.942-.073.182-2.169h1.159V55.2h3.228v1.114h-3.228v3.027c0,1.176.416,1.747,1.654,1.747a4.391,4.391,0,0,0,1.56-.292l.283,1.018a6.31,6.31,0,0,1-2.165.4C353.639,62.211,352.958,61.053,352.958,59.335Z"
       class="cls-2" />
    <path
       id="path190"
       transform="translate(-16.056 -13.563)"
       d="M359.428,62.954h6.723v1.139h-6.723Z"
       class="cls-2" />
    <path
       id="path192"
       transform="translate(-16.056 -13.563)"
       d="M369.757,59.335V56.312h-1.886V55.271l1.942-.073L370,53.029h1.157V55.2h3.23v1.114h-3.23v3.027c0,1.176.417,1.747,1.656,1.747a4.386,4.386,0,0,0,1.559-.292l.284,1.018a6.312,6.312,0,0,1-2.167.4C370.439,62.211,369.757,61.053,369.757,59.335Z"
       class="cls-2" />
    <path
       id="path194"
       transform="translate(-16.056 -13.563)"
       d="M378.326,56.014a1.264,1.264,0,1,1,1.263,1.308A1.254,1.254,0,0,1,378.326,56.014Zm0,4.888a1.264,1.264,0,1,1,1.263,1.309A1.253,1.253,0,0,1,378.326,60.9Z"
       class="cls-2" />
    <path
       id="path196"
       transform="translate(-16.056 -13.563)"
       d="M384.716,61.146l.621-.9a4.966,4.966,0,0,0,2.916.9c1.05,0,1.552-.417,1.552-.932,0-.485-.284-.791-2.008-1.146-1.808-.375-2.656-1-2.656-2.036,0-1.144,1.029-2,2.924-2a5.249,5.249,0,0,1,2.813.89l-.654.87a4.137,4.137,0,0,0-2.281-.7c-1.018,0-1.412.4-1.412.871,0,.536.546.746,1.89,1.032,2.227.488,2.786,1.062,2.786,2.133,0,1.145-1.11,2.086-3.131,2.086A6.1,6.1,0,0,1,384.716,61.146Z"
       class="cls-2" />
    <path
       id="path198"
       transform="translate(-16.056 -13.563)"
       d="M393.126,57.549c0-3.005,1.255-4.6,3.263-4.6s3.262,1.6,3.262,4.6c0,2.983-1.255,4.662-3.262,4.662S393.126,60.532,393.126,57.549Zm5.251,0c0-2.5-.836-3.493-1.988-3.493s-1.988,1-1.988,3.493.835,3.553,1.988,3.553S398.377,60.047,398.377,57.549Zm-2.9-.079a.917.917,0,1,1,.916.972A.908.908,0,0,1,395.473,57.47Z"
       class="cls-2" />
    <path
       id="path200"
       transform="translate(-16.056 -13.563)"
       d="M409,52.1h1.215l-4.6,12.186H404.4Z"
       class="cls-2" />
    <path
       id="path202"
       transform="translate(-16.056 -13.563)"
       d="M412.139,55.2h1.418L415,58.9c.255.69.492,1.372.722,2.049h.056c.231-.677.444-1.359.711-2.049l1.446-3.7h1.34l-2.756,6.845h-1.578Z"
       class="cls-2" />
    <path
       id="path204"
       transform="translate(-16.056 -13.563)"
       d="M420.959,60.236c0-1.535,1.392-2.29,4.848-2.55a1.508,1.508,0,0,0-1.721-1.525,4.775,4.775,0,0,0-2.313.77l-.534-.93a6.152,6.152,0,0,1,3.1-.971,2.605,2.605,0,0,1,2.868,2.891v4.122H426.05l-.111-.888h-.045a4.5,4.5,0,0,1-2.62,1.056A2.075,2.075,0,0,1,420.959,60.236Zm4.848-.054v-1.6c-2.689.192-3.486.733-3.486,1.551,0,.687.618.971,1.35.971A3.431,3.431,0,0,0,425.807,60.182Z"
       class="cls-2" />
    <path
       id="path206"
       transform="translate(-16.056 -13.563)"
       d="M430.23,55.2h1.155l.125,1.588h.033a3.5,3.5,0,0,1,2.983-1.756,2.865,2.865,0,0,1,1.341.28l-.305,1.186a3.479,3.479,0,0,0-1.253-.219,3.033,3.033,0,0,0-2.684,1.882v3.884H430.23Z"
       class="cls-2" />
    <path
       id="path208"
       transform="translate(-16.056 -13.563)"
       d="M442.6,52.1h1.215l-4.6,12.186H438Z"
       class="cls-2" />
    <path
       id="path210"
       transform="translate(-16.056 -13.563)"
       d="M445.2,55.2h1.368l.713,3.763c.117.654.2,1.263.287,1.924h.054A17.485,17.485,0,0,1,448,58.961l.736-3.211h1.238l.718,3.211c.149.654.315,1.263.4,1.924h.056c.107-.661.167-1.27.279-1.924l.7-3.763h1.284l-1.357,6.845h-1.726l-.68-2.993c-.107-.508-.21-1.178-.315-2.029h-.056c-.1.8-.2,1.451-.31,2.029l-.657,2.993H446.6Z"
       class="cls-2" />
    <path
       id="path212"
       transform="translate(-16.056 -13.563)"
       d="M453.6,55.2h1.369l.713,3.763c.115.654.2,1.263.287,1.924h.054a17.252,17.252,0,0,1,.373-1.924l.736-3.211h1.237l.719,3.211c.148.654.315,1.263.4,1.924h.057c.106-.661.166-1.27.279-1.924l.7-3.763h1.285l-1.358,6.845h-1.724l-.681-2.993c-.107-.508-.211-1.178-.315-2.029h-.056c-.1.8-.2,1.451-.31,2.029l-.657,2.993H455Z"
       class="cls-2" />
    <path
       id="path214"
       transform="translate(-16.056 -13.563)"
       d="M462,55.2h1.368l.713,3.763c.116.654.2,1.263.287,1.924h.054a17.485,17.485,0,0,1,.374-1.924l.735-3.211h1.239l.717,3.211c.15.654.316,1.263.4,1.924h.055c.108-.661.167-1.27.28-1.924l.7-3.763h1.284l-1.357,6.845h-1.726l-.68-2.993c-.107-.508-.211-1.178-.315-2.029h-.056c-.1.8-.2,1.451-.31,2.029l-.658,2.993H463.4Z"
       class="cls-2" />
    <path
       id="path216"
       transform="translate(-16.056 -13.563)"
       d="M476.2,52.1h1.215l-4.6,12.186H471.6Z"
       class="cls-2" />
    <path
       id="path218"
       transform="translate(-16.056 -13.563)"
       d="M479.933,52.111h1.394v2.634l-.083,1.54h.045a3.337,3.337,0,0,1,2.476-1.255c1.6,0,2.327.985,2.327,2.767v4.246h-1.4V57.979c0-1.194-.4-1.747-1.416-1.747a2.658,2.658,0,0,0-1.953,1.091v4.72h-1.394Z"
       class="cls-2" />
    <path
       id="path220"
       transform="translate(-16.056 -13.563)"
       d="M489.876,59.335V56.312h-1.887V55.271l1.942-.073.182-2.169h1.159V55.2H494.5v1.114h-3.228v3.027c0,1.176.416,1.747,1.654,1.747a4.382,4.382,0,0,0,1.559-.292l.284,1.018a6.31,6.31,0,0,1-2.165.4C490.557,62.211,489.876,61.053,489.876,59.335Z"
       class="cls-2" />
    <path
       id="path222"
       transform="translate(-16.056 -13.563)"
       d="M496.234,55.2h1.086l.112.887h.033a1.661,1.661,0,0,1,1.542-1.055c.654,0,1.079.393,1.268,1.166a1.718,1.718,0,0,1,1.581-1.166c.962,0,1.523.772,1.523,2.138v4.875h-1.357V57.267c0-.692-.194-1.045-.638-1.045-.421,0-.654.315-.975.953v4.868H499.2V57.267c0-.692-.177-1.045-.621-1.045-.419,0-.693.315-.99.953v4.868h-1.358Z"
       class="cls-2" />
    <path
       id="path224"
       transform="translate(-16.056 -13.563)"
       d="M507.2,59.647V53.225h-2.351V52.111H508.6v7.62a1.177,1.177,0,0,0,1.289,1.333,3.066,3.066,0,0,0,1.225-.287l.336,1.035a4.5,4.5,0,0,1-1.886.4C508.031,62.211,507.2,61.3,507.2,59.647Z"
       class="cls-2" />
    <path
       id="path226"
       transform="translate(-16.056 -13.563)"
       d="M518.2,52.1h1.215l-4.6,12.186H513.6Z"
       class="cls-2" />
    <path
       id="path228"
       transform="translate(-16.056 -13.563)"
       d="M522.071,55.271l1.957-.073H528.1v1.114h-6.029Zm1.918-.545a2.55,2.55,0,0,1,2.84-2.783,5.4,5.4,0,0,1,2,.387l-.3,1.036a3.742,3.742,0,0,0-1.548-.31,1.432,1.432,0,0,0-1.6,1.636v7.351h-1.385Z"
       class="cls-2" />
    <path
       id="path230"
       transform="translate(-16.056 -13.563)"
       d="M533.383,56.312h-3.06V55.2h4.455v6.845h-1.395Zm-.454-3.444a1.04,1.04,0,0,1,2.079,0,1.041,1.041,0,0,1-2.079,0Z"
       class="cls-2" />
    <path
       id="path232"
       transform="translate(-16.056 -13.563)"
       d="M540.8,59.647V53.225h-2.352V52.111H542.2v7.62a1.177,1.177,0,0,0,1.289,1.333,3.071,3.071,0,0,0,1.226-.287l.336,1.035a4.5,4.5,0,0,1-1.887.4C541.631,62.211,540.8,61.3,540.8,59.647Z"
       class="cls-2" />
    <path
       id="path234"
       transform="translate(-16.056 -13.563)"
       d="M546.81,58.609a3.454,3.454,0,0,1,3.51-3.579,2.969,2.969,0,0,1,3.152,3.231,4.891,4.891,0,0,1-.065.757h-5.631V58h4.762l-.3.34c0-1.483-.717-2.226-1.877-2.226a2.222,2.222,0,0,0-2.181,2.5,2.312,2.312,0,0,0,2.525,2.51,3.716,3.716,0,0,0,2-.6l.489.882a4.843,4.843,0,0,1-2.666.813A3.474,3.474,0,0,1,546.81,58.609Z"
       class="cls-2" />
    <path
       id="path236"
       transform="translate(-16.056 -13.563)"
       d="M555.272,61.228c2.9-2.537,4.571-4.089,4.571-5.522,0-.981-.6-1.633-1.813-1.633a2.98,2.98,0,0,0-2.051,1.024l-.786-.777a4.016,4.016,0,0,1,3.014-1.372,2.665,2.665,0,0,1,2.974,2.686c0,1.633-1.645,3.283-3.888,5.3.548-.045,1.141-.078,1.654-.078h2.716v1.186h-6.391Z"
       class="cls-2" />
  </g>
</svg>
